<svg id="Layer_1" data-name="Layer 1" xmlns="http://www.w3.org/2000/svg" viewBox="0 0 893.16 301.28"><defs><style>.cls-1{fill:#242642;}.cls-2{fill:#6680ba;}.cls-3{fill:#2e3b87;}.cls-4{fill:#b2c9d4;}</style></defs><title>logo-wellcome-sanger-institute</title><path class="cls-1" d="M402.07,133.76a8.59,8.59,0,0,0-3.93-6.67,11.82,11.82,0,0,0-7.53-2.56c-4.79,0-10.26,1-10.26,6.84,0,2.56,2,3.76,3.94,4.62,5.64,2.39,18.46,3.08,29.75,6.84,11.29,3.59,21.2,10.26,21.2,24.79,0,24.63-23.59,31.3-45.14,31.3-20.86,0-43.78-8.38-44.29-31.3h32.32a10.91,10.91,0,0,0,4.1,7.87c1.71,1.54,5,2.56,9.07,2.56,4.44,0,11.45-1.71,11.45-6.84s-2.9-6.67-18.64-9.4c-25.82-4.45-36.25-12.66-36.25-27.88,0-22.4,24.11-28.21,41.9-28.21,19.15,0,42.24,5.3,43.09,28Z" transform="translate(-2.68 -4.34)"/><path class="cls-1" d="M525.52,176.85c0,6.68.34,14.2,4.1,19.84H495.08a23.58,23.58,0,0,1-1.2-8.38h-.34c-7.18,8.21-17.61,10.6-28.56,10.6-17.1,0-31.29-8.2-31.29-26.84,0-28,32.83-27,50.1-30.27,4.62-.86,9.23-2.22,9.23-7.87,0-6-5.64-8.21-11.11-8.21-10.43,0-12.48,5.3-12.65,9.07H437.79c1-25,24.63-29.07,45.66-29.07,42.41,0,42.07,17.61,42.07,34.71v36.42Zm-32.5-20a57.67,57.67,0,0,1-13.33,4.27c-7.53,1.71-11.46,3.6-11.46,9.58,0,4.1,4.45,8.21,10.6,8.21,7.7,0,13.68-4.62,14.19-13.85v-8.21Z" transform="translate(-2.68 -4.34)"/><path class="cls-1" d="M533.18,107.94h32.66v11.29h.34c6.33-8.89,15.39-13.51,28.9-13.51,15.9,0,30.44,9.75,30.44,30.1v60.87H591.66V150.18c0-10.26-1.2-17.44-11.11-17.44-5.82,0-13.51,2.9-13.51,17.1v46.85H533.18V107.94Z" transform="translate(-2.68 -4.34)"/><path class="cls-1" d="M724.33,185.24c0,17.61-4.62,42.41-46.17,42.41-21,0-43.27-5.65-46.35-29.59h33.52a21.47,21.47,0,0,0,1.88,3.08c2,3.08,5.65,6.5,9.92,6.5,10.94,0,13.34-13,13.34-20.35v-8.21h-.34a27.93,27.93,0,0,1-23.77,12.31c-26.17,0-38-19.49-38-43.26,0-23.09,13.17-42.41,38.48-42.41,9.92,0,19.32,3.93,23.26,13h.34V107.94h33.86Zm-46.86-15.57c12.49,0,13.85-12,13.85-21.88,0-9.75-4.79-17.45-14.7-17.45-9.58,0-14.37,8.21-14.37,17.62,0,10.08,3.08,21.71,15.22,21.71" transform="translate(-2.68 -4.34)"/><path class="cls-1" d="M759.74,159.93C760.6,170,766.41,177.2,777,177.2c5.48,0,11.46-2,14.2-6.33h31.63c-6.84,19.15-25.48,28-45.65,28-28.39,0-49.77-16.76-49.77-46.34,0-25.82,18.81-46.85,46.86-46.85,35.22,0,50.45,19.66,50.45,54.2h-65Zm32.49-17.62a14.57,14.57,0,0,0-14.87-14.88c-10.09,0-15.91,5.31-17.45,14.88Z" transform="translate(-2.68 -4.34)"/><path class="cls-1" d="M828.13,107.94h32.49v14.19H861c5.47-10.6,12.65-16.41,25-16.41a38.36,38.36,0,0,1,9.92,1.37V137a34.33,34.33,0,0,0-13.33-2.22c-13.34,0-20.53,7.87-20.53,26.85v35.05H828.13Z" transform="translate(-2.68 -4.34)"/><path class="cls-1" d="M365.7,224.74H353.41v-8.63H365.7Zm-12.29,3.48H365.7v32.23H353.41Z" transform="translate(-2.68 -4.34)"/><path class="cls-1" d="M368.69,228.22h11.86v4.1h.12c2.3-3.23,5.59-4.91,10.5-4.91,5.78,0,11.05,3.54,11.05,10.93v22.11H389.93V243.56c0-3.73-.44-6.33-4-6.33-2.11,0-4.91,1.05-4.91,6.21v17H368.69V228.22Z" transform="translate(-2.68 -4.34)"/><path class="cls-1" d="M423.79,237.6a3.09,3.09,0,0,0-1.43-2.42,4.29,4.29,0,0,0-2.73-.94c-1.74,0-3.73.38-3.73,2.49,0,.93.75,1.36,1.43,1.67,2.05.87,6.71,1.12,10.81,2.49s7.7,3.73,7.7,9c0,8.94-8.57,11.36-16.39,11.36-7.58,0-15.9-3-16.09-11.36H415.1a4,4,0,0,0,1.49,2.85,5.06,5.06,0,0,0,3.29.93c1.62,0,4.16-.62,4.16-2.48s-1.05-2.43-6.77-3.42c-9.38-1.61-13.16-4.59-13.16-10.12,0-8.14,8.75-10.25,15.21-10.25,7,0,15.34,1.93,15.65,10.19Z" transform="translate(-2.68 -4.34)"/><path class="cls-1" d="M452.08,228.22h6.58v7.58h-6.58V247c0,3,.68,4.28,3.78,4.28a21.94,21.94,0,0,0,2.8-.18v9.31c-2.49,0-5.28.37-7.89.37-5.22,0-11-.8-11-9.62V235.8h-5.47v-7.58h5.47v-9.81h12.3Z" transform="translate(-2.68 -4.34)"/><path class="cls-1" d="M472.94,224.74h-12.3v-8.63h12.3Zm-12.3,3.48h12.3v32.23h-12.3Z" transform="translate(-2.68 -4.34)"/><path class="cls-1" d="M492.56,228.22h6.58v7.58h-6.58V247c0,3,.68,4.28,3.79,4.28a21.78,21.78,0,0,0,2.79-.18v9.31c-2.48,0-5.28.37-7.89.37-5.21,0-11-.8-11-9.62V235.8H474.8v-7.58h5.46v-9.81h12.3Z" transform="translate(-2.68 -4.34)"/><path class="cls-1" d="M534.41,260.45H522.55v-4.1h-.12c-2.3,3.23-5.59,4.91-10.5,4.91-5.77,0-11.05-3.54-11.05-10.93V228.22h12.29v16.89c0,3.73.44,6.34,4,6.34,2.11,0,4.91-1.06,4.91-6.21v-17h12.29v32.23Z" transform="translate(-2.68 -4.34)"/><path class="cls-1" d="M552.25,228.22h6.58v7.58h-6.58V247c0,3,.68,4.28,3.79,4.28a21.78,21.78,0,0,0,2.79-.18v9.31c-2.48,0-5.28.37-7.88.37-5.22,0-11-.8-11-9.62V235.8h-5.46v-7.58H540v-9.81h12.3Z" transform="translate(-2.68 -4.34)"/><path class="cls-1" d="M570.94,247.1c.31,3.66,2.42,6.27,6.27,6.27,2,0,4.16-.74,5.15-2.29h11.49c-2.48,6.95-9.25,10.18-16.58,10.18-10.31,0-18.07-6.09-18.07-16.83,0-9.38,6.83-17,17-17,12.79,0,18.32,7.15,18.32,19.69Zm11.8-6.4a5.29,5.29,0,0,0-5.4-5.4c-3.67,0-5.78,1.93-6.34,5.4Z" transform="translate(-2.68 -4.34)"/><path class="cls-1" d="M432.07,59.57c-2.21-7.38-7.66-11.46-17-11.46-7.17,0-12.64,3.64-15.41,9l2.54-8.18H389.49L384.94,69.6h-.25l-4.38-20.66H368.83L364.7,69.6h-.19l-4.87-20.66H346.91L357,82.15h12.55l4.87-20.54h.19l4.73,20.54h12.57l6-19.19a19.79,19.79,0,0,0-.21,2.69c0,11.06,7.64,17.34,18,17.34,7.13,0,13.57-3,16.4-9.3v8.46h12.17V36.47H432.07ZM415.68,56a5.65,5.65,0,0,1,5.87,5.9H409.37C410,58.08,412.18,56,415.68,56Zm16.39,16.63h-11c-1.06,1.61-3.3,2.38-5.3,2.38-4,0-6.17-2.76-6.49-6.72h22.76v4.34Z" transform="translate(-2.68 -4.34)"/><path class="cls-1" d="M598.61,75.05c-4,0-6.18-2.76-6.49-6.72H616c-.06-12.86-5.62-20.22-18.11-20.22-8.69,0-14.87,5.33-16.79,12.62V59.31c0-5.38-2.8-11.2-11-11.2-4.8,0-7.75,1.72-9.44,3.39a6,6,0,0,0-.49.57c-.63.65-.94,1.1-1.19,1.35a9.62,9.62,0,0,0-8.74-5.31c-4.5,0-8.12,1.41-10.67,5.31h-.2V48.94h-11.8V82.15h12.18v-18c0-3.52,1.06-6.14,4.31-6.14,3.93,0,4.17,3,4.17,6.14v18h12.25v-18c0-3.52,1.06-6.14,4.3-6.14,3.88,0,4.19,3,4.19,6.14v18h12.18V70.78c2,7.84,8.72,12.21,17.35,12.21,7.5,0,14.24-3.27,16.8-10.32H603.9C602.85,74.28,600.6,75.05,598.61,75.05Zm-.13-19a5.64,5.64,0,0,1,5.86,5.9H592.17C592.8,58.08,595,56,598.48,56Z" transform="translate(-2.68 -4.34)"/><path class="cls-1" d="M509.88,48.11c-9.1,0-14.47,4.58-16.61,10.73-1.78-7.47-8.6-10.73-15.79-10.73-9,0-15.92,5.37-17.47,13.75V36.47H447.83V82.15H460V69.63C461.54,78.44,468.2,83,477.11,83c7.61,0,13.88-3.79,16.2-10.68C495.48,78.43,500.83,83,509.88,83c12.17,0,17.67-8.26,17.67-17.48S522.05,48.11,509.88,48.11ZM482.42,69c-.33,2.7-2,4.94-5.19,4.94-3.93,0-5.37-3.07-5.37-8.39,0-4,1-8.44,5.62-8.44,2.88,0,4.61,1.93,4.61,5.25h10.34a21.76,21.76,0,0,0-.23,3.13,21.41,21.41,0,0,0,.28,3.51ZM509.88,74c-4.81,0-5.5-4.87-5.5-8.45s.69-8.38,5.5-8.38,5.49,4.8,5.49,8.38S514.68,74,509.88,74Z" transform="translate(-2.68 -4.34)"/><path class="cls-2" d="M21.81,72.84H9.37a3.46,3.46,0,0,1-3.46-3.46V56.93a3.46,3.46,0,0,1,3.46-3.46H21.81a3.45,3.45,0,0,1,3.46,3.46V69.38A3.45,3.45,0,0,1,21.81,72.84Z" transform="translate(-2.68 -4.34)"/><path class="cls-3" d="M164.38,80.37H142.26a6.15,6.15,0,0,1-6.16-6.15V52.09a6.16,6.16,0,0,1,6.16-6.15h22.12a6.15,6.15,0,0,1,6.15,6.15V74.22A6.15,6.15,0,0,1,164.38,80.37Z" transform="translate(-2.68 -4.34)"/><path class="cls-4" d="M207.52,30.16H190.93a4.61,4.61,0,0,1-4.61-4.62V9a4.6,4.6,0,0,1,4.61-4.61h16.59A4.61,4.61,0,0,1,212.14,9V25.54A4.62,4.62,0,0,1,207.52,30.16Z" transform="translate(-2.68 -4.34)"/><path class="cls-2" d="M210.29,80.37H188.17A6.15,6.15,0,0,1,182,74.22V52.09a6.16,6.16,0,0,1,6.16-6.15h22.12a6.15,6.15,0,0,1,6.15,6.15V74.22A6.15,6.15,0,0,1,210.29,80.37Z" transform="translate(-2.68 -4.34)"/><path class="cls-2" d="M251.36,26.93H238.91a3.46,3.46,0,0,1-3.46-3.46V11a3.46,3.46,0,0,1,3.46-3.46h12.45A3.46,3.46,0,0,1,254.82,11V23.47A3.46,3.46,0,0,1,251.36,26.93Z" transform="translate(-2.68 -4.34)"/><path class="cls-4" d="M299.34,76.07H282.75a4.62,4.62,0,0,1-4.62-4.62V54.86a4.62,4.62,0,0,1,4.62-4.62h16.59A4.62,4.62,0,0,1,304,54.86V71.45A4.62,4.62,0,0,1,299.34,76.07Z" transform="translate(-2.68 -4.34)"/><path class="cls-2" d="M23.89,167.88H7.3a4.61,4.61,0,0,1-4.62-4.61V146.68a4.62,4.62,0,0,1,4.62-4.62H23.89a4.61,4.61,0,0,1,4.61,4.62v16.59A4.6,4.6,0,0,1,23.89,167.88Z" transform="translate(-2.68 -4.34)"/><path class="cls-4" d="M72.56,126.28H50.44a6.15,6.15,0,0,1-6.16-6.15V98a6.15,6.15,0,0,1,6.16-6.15H72.56A6.15,6.15,0,0,1,78.72,98v22.13A6.15,6.15,0,0,1,72.56,126.28Z" transform="translate(-2.68 -4.34)"/><path class="cls-3" d="M72.56,172.19H50.44A6.16,6.16,0,0,1,44.28,166V143.91a6.15,6.15,0,0,1,6.16-6.15H72.56a6.15,6.15,0,0,1,6.16,6.15V166A6.16,6.16,0,0,1,72.56,172.19Z" transform="translate(-2.68 -4.34)"/><path class="cls-2" d="M120.68,175.63H94.14a7.38,7.38,0,0,1-7.39-7.38V141.7a7.39,7.39,0,0,1,7.39-7.39h26.54a7.39,7.39,0,0,1,7.39,7.39v26.55A7.38,7.38,0,0,1,120.68,175.63Z" transform="translate(-2.68 -4.34)"/><path class="cls-2" d="M166.59,129.72H140a7.37,7.37,0,0,1-7.38-7.38V95.79A7.37,7.37,0,0,1,140,88.41h26.55A7.38,7.38,0,0,1,174,95.79v26.55A7.38,7.38,0,0,1,166.59,129.72Z" transform="translate(-2.68 -4.34)"/><path class="cls-4" d="M166.59,175.63H140a7.37,7.37,0,0,1-7.38-7.38V141.7a7.38,7.38,0,0,1,7.38-7.39h26.55A7.39,7.39,0,0,1,174,141.7v26.55A7.38,7.38,0,0,1,166.59,175.63Z" transform="translate(-2.68 -4.34)"/><path class="cls-4" d="M212.5,129.72H186a7.37,7.37,0,0,1-7.38-7.38V95.79A7.37,7.37,0,0,1,186,88.41H212.5a7.38,7.38,0,0,1,7.39,7.38v26.55A7.38,7.38,0,0,1,212.5,129.72Z" transform="translate(-2.68 -4.34)"/><path class="cls-3" d="M256.2,172.19H234.07a6.15,6.15,0,0,1-6.15-6.16V143.91a6.15,6.15,0,0,1,6.15-6.15H256.2a6.15,6.15,0,0,1,6.15,6.15V166A6.15,6.15,0,0,1,256.2,172.19Z" transform="translate(-2.68 -4.34)"/><path class="cls-4" d="M72.56,264H50.44a6.16,6.16,0,0,1-6.16-6.16V235.73a6.15,6.15,0,0,1,6.16-6.15H72.56a6.15,6.15,0,0,1,6.16,6.15v22.12A6.16,6.16,0,0,1,72.56,264Z" transform="translate(-2.68 -4.34)"/><path class="cls-3" d="M120.68,221.54H94.14a7.38,7.38,0,0,1-7.39-7.38V187.61a7.39,7.39,0,0,1,7.39-7.39h26.54a7.39,7.39,0,0,1,7.39,7.39v26.55A7.38,7.38,0,0,1,120.68,221.54Z" transform="translate(-2.68 -4.34)"/><path class="cls-3" d="M164.38,264H142.26a6.16,6.16,0,0,1-6.16-6.16V235.73a6.15,6.15,0,0,1,6.16-6.15h22.12a6.15,6.15,0,0,1,6.15,6.15v22.12A6.15,6.15,0,0,1,164.38,264Z" transform="translate(-2.68 -4.34)"/><path class="cls-3" d="M212.5,221.54H186a7.37,7.37,0,0,1-7.38-7.38V187.61a7.38,7.38,0,0,1,7.38-7.39H212.5a7.39,7.39,0,0,1,7.39,7.39v26.55A7.38,7.38,0,0,1,212.5,221.54Z" transform="translate(-2.68 -4.34)"/><path class="cls-2" d="M210.29,264H188.17a6.16,6.16,0,0,1-6.16-6.16V235.73a6.15,6.15,0,0,1,6.16-6.15h22.12a6.15,6.15,0,0,1,6.15,6.15v22.12A6.15,6.15,0,0,1,210.29,264Z" transform="translate(-2.68 -4.34)"/><path class="cls-4" d="M256.2,218.1H234.07a6.15,6.15,0,0,1-6.15-6.16V189.82a6.15,6.15,0,0,1,6.15-6.15H256.2a6.15,6.15,0,0,1,6.15,6.15v22.12A6.15,6.15,0,0,1,256.2,218.1Z" transform="translate(-2.68 -4.34)"/><path class="cls-2" d="M297.27,256.48H284.82a3.46,3.46,0,0,1-3.46-3.47V240.57a3.46,3.46,0,0,1,3.46-3.46h12.45a3.46,3.46,0,0,1,3.46,3.46V253A3.46,3.46,0,0,1,297.27,256.48Z" transform="translate(-2.68 -4.34)"/><path class="cls-3" d="M21.81,302.38H9.37a3.46,3.46,0,0,1-3.46-3.46V286.48A3.46,3.46,0,0,1,9.37,283H21.81a3.45,3.45,0,0,1,3.46,3.46v12.44A3.45,3.45,0,0,1,21.81,302.38Z" transform="translate(-2.68 -4.34)"/><path class="cls-4" d="M253.43,305.61H236.84a4.61,4.61,0,0,1-4.62-4.61V284.4a4.61,4.61,0,0,1,4.62-4.61h16.59a4.61,4.61,0,0,1,4.62,4.61V301A4.61,4.61,0,0,1,253.43,305.61Z" transform="translate(-2.68 -4.34)"/></svg>