<svg id="Isolation_Mode" data-name="Isolation Mode" xmlns="http://www.w3.org/2000/svg" viewBox="0 0 1264.06 143.54"><defs><style>.cls-1{fill:#bf063b;}.cls-2{fill:#65666a;}.cls-3{fill:#fff;}</style></defs><title>logo-NIH-HCMI-Catalog</title><path class="cls-1" d="M295.66,20.46v35.1H289l-17.5-21.31V55.56h-8V20.46h6.72l17.45,21.31V20.46Z"/><path class="cls-1" d="M327.1,48H310.8l-3.11,7.52h-8.32L315,20.46h8l15.69,35.1h-8.52Zm-2.56-6.17L319,28.44l-5.56,13.43Z"/><path class="cls-1" d="M347.91,27.08H336.67V20.46h30.59v6.62H356V55.56h-8.12Z"/><path class="cls-1" d="M371.62,20.46h8.12v35.1h-8.12Z"/><path class="cls-1" d="M395.21,53.81A17.49,17.49,0,0,1,385.86,38a17.78,17.78,0,0,1,2.48-9.3,17.53,17.53,0,0,1,6.87-6.49,21.69,21.69,0,0,1,19.68,0A17.56,17.56,0,0,1,424.27,38a17.59,17.59,0,0,1-9.38,15.8,21.78,21.78,0,0,1-19.68,0Zm15.47-6a10.42,10.42,0,0,0,3.94-4A11.75,11.75,0,0,0,416,38a11.71,11.71,0,0,0-1.42-5.81,10.28,10.28,0,0,0-3.94-4,11.74,11.74,0,0,0-11.23,0,10.21,10.21,0,0,0-3.94,4A11.72,11.72,0,0,0,394.08,38a11.76,11.76,0,0,0,1.43,5.82,10.35,10.35,0,0,0,3.94,4,11.81,11.81,0,0,0,11.23,0Z"/><path class="cls-1" d="M462.57,20.46v35.1h-6.66l-17.5-21.31V55.56h-8V20.46h6.72l17.45,21.31V20.46Z"/><path class="cls-1" d="M494,48H477.72l-3.11,7.52h-8.33l15.65-35.1h8l15.69,35.1h-8.52Zm-2.56-6.17-5.56-13.43-5.57,13.43Z"/><path class="cls-1" d="M509.3,20.46h8.13V48.94H535v6.62H509.3Z"/><path class="cls-1" d="M560.87,53.83a17.41,17.41,0,0,1-6.82-6.47A17.83,17.83,0,0,1,551.57,38a17.88,17.88,0,0,1,2.48-9.35,17.48,17.48,0,0,1,6.82-6.47,21.73,21.73,0,0,1,18-.72,16.43,16.43,0,0,1,6.19,4.61l-5.21,4.81A11.22,11.22,0,0,0,571,26.78a11.72,11.72,0,0,0-5.81,1.43,10.14,10.14,0,0,0-4,4A11.72,11.72,0,0,0,559.79,38a11.76,11.76,0,0,0,1.43,5.82,10.27,10.27,0,0,0,4,4A11.71,11.71,0,0,0,571,49.24a11.14,11.14,0,0,0,8.83-4.16l5.21,4.82a16.33,16.33,0,0,1-6.21,4.66,20.69,20.69,0,0,1-8.28,1.6A20.1,20.1,0,0,1,560.87,53.83Z"/><path class="cls-1" d="M612.94,48H596.65l-3.11,7.52h-8.33l15.65-35.1h8l15.69,35.1h-8.52Zm-2.56-6.17-5.56-13.43-5.57,13.43Z"/><path class="cls-1" d="M660.42,20.46v35.1h-6.67L636.26,34.25V55.56h-8V20.46H635L652.4,41.77V20.46Z"/><path class="cls-1" d="M675.84,53.83A17.41,17.41,0,0,1,669,47.36,17.83,17.83,0,0,1,666.54,38,17.88,17.88,0,0,1,669,28.66a17.48,17.48,0,0,1,6.82-6.47,21.73,21.73,0,0,1,18-.72A16.43,16.43,0,0,1,700,26.08l-5.21,4.81A11.23,11.23,0,0,0,686,26.78a11.72,11.72,0,0,0-5.81,1.43,10.08,10.08,0,0,0-4,4A11.72,11.72,0,0,0,674.76,38a11.76,11.76,0,0,0,1.43,5.82,10.21,10.21,0,0,0,4,4A11.71,11.71,0,0,0,686,49.24a11.16,11.16,0,0,0,8.83-4.16L700,49.9a16.33,16.33,0,0,1-6.21,4.66,20.69,20.69,0,0,1-8.28,1.6A20.07,20.07,0,0,1,675.84,53.83Z"/><path class="cls-1" d="M732.67,49v6.52H705.5V20.46H732V27H713.57V34.6h16.29v6.32H713.57V49Z"/><path class="cls-1" d="M761.5,55.56l-6.77-9.78h-7.47v9.78h-8.12V20.46h15.19a19.44,19.44,0,0,1,8.1,1.56,11.62,11.62,0,0,1,7.15,11.18,11.47,11.47,0,0,1-7.23,11.08l7.88,11.28Zm-2-26.9a8.56,8.56,0,0,0-5.57-1.58h-6.62V39.32h6.62a8.45,8.45,0,0,0,5.57-1.61,5.57,5.57,0,0,0,1.9-4.51A5.56,5.56,0,0,0,759.45,28.66Z"/><path class="cls-1" d="M790.18,20.46h8.12v35.1h-8.12Z"/><path class="cls-1" d="M838.82,20.46v35.1h-6.67l-17.5-21.31V55.56h-8V20.46h6.71l17.45,21.31V20.46Z"/><path class="cls-1" d="M850.62,55a18.68,18.68,0,0,1-6.24-2.93L847.14,46a18.46,18.46,0,0,0,5.37,2.66,20.07,20.07,0,0,0,6.21,1,10,10,0,0,0,5.12-1,3.12,3.12,0,0,0,1.65-2.74,2.61,2.61,0,0,0-1-2.08,7.58,7.58,0,0,0-2.5-1.33c-1-.33-2.4-.7-4.14-1.1a57.31,57.31,0,0,1-6.57-1.9,10.8,10.8,0,0,1-4.39-3.06,8.28,8.28,0,0,1-1.83-5.62,9.81,9.81,0,0,1,1.66-5.54,11.16,11.16,0,0,1,5-3.93,20.34,20.34,0,0,1,8.15-1.46,27.21,27.21,0,0,1,6.56.8A19.72,19.72,0,0,1,872.06,23l-2.51,6.17a19.53,19.53,0,0,0-9.72-2.76,9.14,9.14,0,0,0-5,1.1,3.37,3.37,0,0,0-1.63,2.91A2.83,2.83,0,0,0,855,33.07a28.4,28.4,0,0,0,5.74,1.73,57.68,57.68,0,0,1,6.57,1.91,10.84,10.84,0,0,1,4.38,3,8.05,8.05,0,0,1,1.83,5.56,9.56,9.56,0,0,1-1.68,5.49,11.26,11.26,0,0,1-5,3.94,20.52,20.52,0,0,1-8.17,1.45A28.47,28.47,0,0,1,850.62,55Z"/><path class="cls-1" d="M885.9,27.08H874.67V20.46h30.58v6.62H894V55.56H885.9Z"/><path class="cls-1" d="M909.61,20.46h8.13v35.1h-8.13Z"/><path class="cls-1" d="M933.33,27.08H922.1V20.46h30.58v6.62H941.45V55.56h-8.12Z"/><path class="cls-1" d="M960.33,52q-4.19-4.16-4.19-11.88V20.46h8.12V39.82q0,9.42,7.83,9.42A7.31,7.31,0,0,0,977.9,47q2-2.28,2-7.14V20.46h8V40.12q0,7.73-4.18,11.88T972,56.16Q964.51,56.16,960.33,52Z"/><path class="cls-1" d="M1002.62,27.08H991.39V20.46H1022v6.62h-11.23V55.56h-8.13Z"/><path class="cls-1" d="M1053.51,49v6.52h-27.17V20.46h26.52V27h-18.45V34.6h16.3v6.32h-16.3V49Z"/><path class="cls-2" d="M302.81,88.24v42h-9.72V113H274v17.22h-9.72v-42H274V104.8h19.08V88.24Z"/><path class="cls-2" d="M344.63,98v32.28h-8.88V126.4a12.41,12.41,0,0,1-4.44,3.21,14,14,0,0,1-5.58,1.11q-6.36,0-10.08-3.66t-3.72-10.86V98h9.36v16.86q0,7.8,6.54,7.8a7,7,0,0,0,5.4-2.19q2-2.19,2-6.51V98Z"/><path class="cls-2" d="M404.3,101.05q3.57,3.57,3.57,10.71v18.48h-9.36v-17q0-3.84-1.59-5.73a5.59,5.59,0,0,0-4.53-1.89,6.68,6.68,0,0,0-5.22,2.13q-1.92,2.13-1.92,6.33v16.2h-9.36v-17q0-7.62-6.12-7.62a6.6,6.6,0,0,0-5.16,2.13q-1.92,2.13-1.92,6.33v16.2h-9.36V98h8.94v3.72a11.81,11.81,0,0,1,4.41-3.12,14.84,14.84,0,0,1,5.73-1.08,13.88,13.88,0,0,1,6.18,1.35,10.94,10.94,0,0,1,4.44,3.93,13.24,13.24,0,0,1,5-3.9,15.81,15.81,0,0,1,6.63-1.38Q400.73,97.48,404.3,101.05Z"/><path class="cls-2" d="M440.81,101.05q4,3.57,4,10.77v18.42h-8.76v-4q-2.64,4.5-9.84,4.5a15.27,15.27,0,0,1-6.45-1.26,9.62,9.62,0,0,1-4.17-3.48,9.06,9.06,0,0,1-1.44-5,8.41,8.41,0,0,1,3.39-7.08q3.39-2.58,10.47-2.58h7.44a6,6,0,0,0-1.86-4.71q-1.86-1.65-5.58-1.65a16.29,16.29,0,0,0-5.07.81,13.41,13.41,0,0,0-4.23,2.19l-3.36-6.54a20.27,20.27,0,0,1,6.33-2.88,28.36,28.36,0,0,1,7.59-1Q436.79,97.48,440.81,101.05Zm-8,22.26a6.07,6.07,0,0,0,2.64-3.27v-3.3h-6.42q-5.76,0-5.76,3.78a3.37,3.37,0,0,0,1.41,2.85,6.35,6.35,0,0,0,3.87,1A8.15,8.15,0,0,0,432.83,123.31Z"/><path class="cls-2" d="M482.6,101.08q3.69,3.6,3.69,10.68v18.48h-9.36v-17q0-3.84-1.68-5.73a6.16,6.16,0,0,0-4.86-1.89,7.45,7.45,0,0,0-5.64,2.19c-1.41,1.46-2.1,3.63-2.1,6.51v16h-9.36V98h8.94v3.78a12.41,12.41,0,0,1,4.62-3.15,16.1,16.1,0,0,1,6.06-1.11A13.28,13.28,0,0,1,482.6,101.08Z"/><path class="cls-2" d="M520.88,128.17a20.82,20.82,0,0,1-8.16-7.74,22.57,22.57,0,0,1,0-22.38,20.82,20.82,0,0,1,8.16-7.74,24.25,24.25,0,0,1,11.67-2.79,24.51,24.51,0,0,1,9.87,1.92A19.77,19.77,0,0,1,549.83,95l-6.24,5.76A13.42,13.42,0,0,0,533,95.8a14,14,0,0,0-7,1.71,12.16,12.16,0,0,0-4.77,4.77,15,15,0,0,0,0,13.92,12.16,12.16,0,0,0,4.77,4.77,14,14,0,0,0,7,1.71,13.35,13.35,0,0,0,10.56-5l6.24,5.76a19.53,19.53,0,0,1-7.44,5.58,24.69,24.69,0,0,1-9.9,1.92A24.12,24.12,0,0,1,520.88,128.17Z"/><path class="cls-2" d="M580,101.05q4,3.57,4,10.77v18.42h-8.76v-4q-2.62,4.5-9.83,4.5a15.21,15.21,0,0,1-6.45-1.26,9.56,9.56,0,0,1-4.17-3.48,9,9,0,0,1-1.45-5,8.42,8.42,0,0,1,3.4-7.08c2.25-1.72,5.75-2.58,10.47-2.58h7.44a6,6,0,0,0-1.86-4.71,8.21,8.21,0,0,0-5.58-1.65,16.25,16.25,0,0,0-5.07.81,13.41,13.41,0,0,0-4.23,2.19l-3.36-6.54a20.17,20.17,0,0,1,6.33-2.88,28.25,28.25,0,0,1,7.59-1Q576,97.48,580,101.05Zm-8,22.26a6.09,6.09,0,0,0,2.65-3.27v-3.3h-6.42q-5.76,0-5.76,3.78a3.34,3.34,0,0,0,1.41,2.85,6.32,6.32,0,0,0,3.86,1A8.15,8.15,0,0,0,572,123.31Z"/><path class="cls-2" d="M621.79,101.08q3.71,3.6,3.7,10.68v18.48h-9.37v-17q0-3.84-1.68-5.73a6.14,6.14,0,0,0-4.85-1.89,7.46,7.46,0,0,0-5.65,2.19q-2.1,2.19-2.1,6.51v16h-9.35V98h8.94v3.78A12.29,12.29,0,0,1,606,98.59a16.1,16.1,0,0,1,6.06-1.11A13.27,13.27,0,0,1,621.79,101.08Z"/><path class="cls-2" d="M640.64,128.59a16,16,0,0,1-6.42-5.91,17.09,17.09,0,0,1,0-17.16,16,16,0,0,1,6.42-5.91,19.79,19.79,0,0,1,9.27-2.13,18,18,0,0,1,8.91,2.13,12.66,12.66,0,0,1,5.54,6.09l-7.26,3.9a7.91,7.91,0,0,0-7.26-4.44,8.23,8.23,0,0,0-6.06,2.4,10.14,10.14,0,0,0,0,13.08,8.23,8.23,0,0,0,6.06,2.4,7.85,7.85,0,0,0,7.26-4.44l7.26,4a12.92,12.92,0,0,1-5.54,6,17.81,17.81,0,0,1-8.91,2.16A19.79,19.79,0,0,1,640.64,128.59Z"/><path class="cls-2" d="M700.78,116.74H676.36a7.61,7.61,0,0,0,3.12,4.74,10.33,10.33,0,0,0,6.12,1.74,12.39,12.39,0,0,0,4.47-.75,10.83,10.83,0,0,0,3.63-2.37l5,5.4q-4.56,5.22-13.32,5.22a21.07,21.07,0,0,1-9.66-2.13,15.61,15.61,0,0,1-6.48-5.91,16.28,16.28,0,0,1-2.28-8.58,16.5,16.5,0,0,1,2.25-8.55,15.76,15.76,0,0,1,6.18-5.94,19.13,19.13,0,0,1,17.37-.09,14.89,14.89,0,0,1,6,5.85,17.44,17.44,0,0,1,2.19,8.85Q701,114.4,700.78,116.74Zm-21.9-10.38a7.66,7.66,0,0,0-2.64,4.92h15.9a7.77,7.77,0,0,0-2.63-4.89,7.94,7.94,0,0,0-5.29-1.83A8.06,8.06,0,0,0,678.88,106.36Z"/><path class="cls-2" d="M720.67,98.68a16.81,16.81,0,0,1,6.57-1.2v8.64q-1.56-.12-2.1-.12a8.58,8.58,0,0,0-6.3,2.25q-2.28,2.25-2.28,6.75v15.24H707.2V98h8.94v4.26A10.41,10.41,0,0,1,720.67,98.68Z"/><path class="cls-2" d="M788.92,130.24l-.06-25.2L776.5,125.8h-4.38l-12.3-20.22v24.66H750.7v-42h8l15.72,26.1,15.48-26.1h8l.12,42Z"/><path class="cls-2" d="M813.55,128.59a15.83,15.83,0,0,1-6.33-5.91,17.28,17.28,0,0,1,0-17.16,15.83,15.83,0,0,1,6.33-5.91,20.65,20.65,0,0,1,18.27,0,15.88,15.88,0,0,1,6.3,5.91,17.28,17.28,0,0,1,0,17.16,15.88,15.88,0,0,1-6.3,5.91,20.65,20.65,0,0,1-18.27,0Zm15.06-8a10.33,10.33,0,0,0,0-13,7.8,7.8,0,0,0-5.91-2.43,7.89,7.89,0,0,0-5.94,2.43,10.23,10.23,0,0,0,0,13A7.89,7.89,0,0,0,822.7,123,7.8,7.8,0,0,0,828.61,120.61Z"/><path class="cls-2" d="M879.52,85.72v44.52h-8.94v-3.72q-3.48,4.2-10.08,4.2a16.76,16.76,0,0,1-8.25-2,14.61,14.61,0,0,1-5.79-5.82,19.32,19.32,0,0,1,0-17.52,14.61,14.61,0,0,1,5.79-5.82,16.76,16.76,0,0,1,8.25-2q6.18,0,9.66,3.9V85.72ZM868,120.61a10.23,10.23,0,0,0,0-13,8.4,8.4,0,0,0-11.82,0,10.23,10.23,0,0,0,0,13,8.4,8.4,0,0,0,11.82,0Z"/><path class="cls-2" d="M919.6,116.74H895.18a7.61,7.61,0,0,0,3.12,4.74,10.33,10.33,0,0,0,6.12,1.74,12.39,12.39,0,0,0,4.47-.75,10.83,10.83,0,0,0,3.63-2.37l5,5.4q-4.56,5.22-13.32,5.22a21.07,21.07,0,0,1-9.66-2.13,15.61,15.61,0,0,1-6.48-5.91,16.28,16.28,0,0,1-2.28-8.58,16.5,16.5,0,0,1,2.25-8.55,15.76,15.76,0,0,1,6.18-5.94,19.13,19.13,0,0,1,17.37-.09,14.89,14.89,0,0,1,6,5.85,17.44,17.44,0,0,1,2.19,8.85Q919.78,114.4,919.6,116.74Zm-21.9-10.38a7.66,7.66,0,0,0-2.64,4.92H911a7.74,7.74,0,0,0-2.64-4.89,7.89,7.89,0,0,0-5.28-1.83A8.06,8.06,0,0,0,897.7,106.36Z"/><path class="cls-2" d="M926,85.72h9.36v44.52H926Z"/><path class="cls-2" d="M947.08,129.73a20.54,20.54,0,0,1-6.12-2.49l3.12-6.72a19.64,19.64,0,0,0,5.22,2.25,21.88,21.88,0,0,0,6,.87q5.94,0,5.94-2.94a2.08,2.08,0,0,0-1.62-2,24,24,0,0,0-5-1,48,48,0,0,1-6.54-1.38,10.15,10.15,0,0,1-4.47-2.76,7.85,7.85,0,0,1-1.89-5.64,8.83,8.83,0,0,1,1.77-5.43,11.39,11.39,0,0,1,5.16-3.69,22,22,0,0,1,8-1.32,31.44,31.44,0,0,1,6.81.75,19,19,0,0,1,5.61,2.07L966,107a18.63,18.63,0,0,0-9.3-2.4,9.46,9.46,0,0,0-4.5.84,2.47,2.47,0,0,0-1.5,2.16,2.14,2.14,0,0,0,1.62,2.1,28.68,28.68,0,0,0,5.16,1.14,55.23,55.23,0,0,1,6.48,1.41,9.73,9.73,0,0,1,4.38,2.73,7.75,7.75,0,0,1,1.86,5.52,8.52,8.52,0,0,1-1.8,5.34,11.49,11.49,0,0,1-5.25,3.63,23.39,23.39,0,0,1-8.19,1.29A31.36,31.36,0,0,1,947.08,129.73Z"/><path class="cls-2" d="M993.58,88.24h9.72v42h-9.72Z"/><path class="cls-2" d="M1041.91,101.08q3.69,3.6,3.69,10.68v18.48h-9.36v-17q0-3.84-1.68-5.73a6.16,6.16,0,0,0-4.86-1.89,7.45,7.45,0,0,0-5.64,2.19q-2.1,2.19-2.1,6.51v16h-9.36V98h8.94v3.78a12.41,12.41,0,0,1,4.62-3.15,16.1,16.1,0,0,1,6.06-1.11A13.28,13.28,0,0,1,1041.91,101.08Z"/><path class="cls-2" d="M1054.54,92a5.08,5.08,0,0,1,0-7.44,5.94,5.94,0,0,1,4.2-1.5,6.09,6.09,0,0,1,4.2,1.44,4.62,4.62,0,0,1,1.62,3.6,5.09,5.09,0,0,1-1.62,3.87,5.87,5.87,0,0,1-4.2,1.53A5.94,5.94,0,0,1,1054.54,92Zm-.48,6h9.36v32.28h-9.36Z"/><path class="cls-2" d="M1092.94,128.68a9.62,9.62,0,0,1-3.39,1.53,17.14,17.14,0,0,1-4.23.51q-5.76,0-8.91-2.94t-3.15-8.64V105.88h-5v-7.2h5V90.82h9.36v7.86h8v7.2h-8V119a4.41,4.41,0,0,0,1.05,3.15,3.89,3.89,0,0,0,3,1.11,6,6,0,0,0,3.78-1.2Z"/><path class="cls-2" d="M1098.7,92a5.08,5.08,0,0,1,0-7.44,5.94,5.94,0,0,1,4.2-1.5,6.09,6.09,0,0,1,4.2,1.44,4.62,4.62,0,0,1,1.62,3.6,5.09,5.09,0,0,1-1.62,3.87,5.87,5.87,0,0,1-4.2,1.53A5.94,5.94,0,0,1,1098.7,92Zm-.48,6h9.36v32.28h-9.36Z"/><path class="cls-2" d="M1140.82,101.05q4,3.57,4,10.77v18.42h-8.76v-4q-2.64,4.5-9.84,4.5a15.27,15.27,0,0,1-6.45-1.26,9.62,9.62,0,0,1-4.17-3.48,9.06,9.06,0,0,1-1.44-5,8.41,8.41,0,0,1,3.39-7.08q3.39-2.58,10.47-2.58h7.44a6,6,0,0,0-1.86-4.71q-1.86-1.65-5.58-1.65a16.29,16.29,0,0,0-5.07.81,13.41,13.41,0,0,0-4.23,2.19l-3.36-6.54a20.27,20.27,0,0,1,6.33-2.88,28.36,28.36,0,0,1,7.59-1Q1136.8,97.48,1140.82,101.05Zm-8,22.26a6.07,6.07,0,0,0,2.64-3.27v-3.3h-6.42q-5.76,0-5.76,3.78a3.37,3.37,0,0,0,1.41,2.85,6.35,6.35,0,0,0,3.87,1A8.15,8.15,0,0,0,1132.84,123.31Z"/><path class="cls-2" d="M1174.12,128.68a9.62,9.62,0,0,1-3.39,1.53,17.14,17.14,0,0,1-4.23.51q-5.76,0-8.91-2.94t-3.15-8.64V105.88h-5v-7.2h5V90.82h9.36v7.86h8v7.2h-8V119a4.41,4.41,0,0,0,1,3.15,3.89,3.89,0,0,0,3,1.11,6,6,0,0,0,3.78-1.2Z"/><path class="cls-2" d="M1179.88,92a5.08,5.08,0,0,1,0-7.44,5.94,5.94,0,0,1,4.2-1.5,6.09,6.09,0,0,1,4.2,1.44,4.62,4.62,0,0,1,1.62,3.6,5.09,5.09,0,0,1-1.62,3.87,5.87,5.87,0,0,1-4.2,1.53A5.94,5.94,0,0,1,1179.88,92Zm-.48,6h9.36v32.28h-9.36Z"/><path class="cls-2" d="M1229.5,98l-13.62,32.28h-9.66L1192.66,98h9.66l8.94,22,9.24-22Z"/><path class="cls-2" d="M1263.88,116.74h-24.42a7.61,7.61,0,0,0,3.12,4.74,10.33,10.33,0,0,0,6.12,1.74,12.39,12.39,0,0,0,4.47-.75,10.83,10.83,0,0,0,3.63-2.37l5,5.4q-4.56,5.22-13.32,5.22a21.07,21.07,0,0,1-9.66-2.13,15.61,15.61,0,0,1-6.48-5.91,16.28,16.28,0,0,1-2.28-8.58,16.5,16.5,0,0,1,2.25-8.55,15.76,15.76,0,0,1,6.18-5.94,19.13,19.13,0,0,1,17.37-.09,14.89,14.89,0,0,1,6,5.85,17.44,17.44,0,0,1,2.19,8.85Q1264.06,114.4,1263.88,116.74ZM1242,106.36a7.66,7.66,0,0,0-2.64,4.92h15.9a7.74,7.74,0,0,0-2.64-4.89,7.89,7.89,0,0,0-5.28-1.83A8.06,8.06,0,0,0,1242,106.36Z"/><path class="cls-1" d="M183.77,0H171.42L210,71l-40.13,72h12.45a13,13,0,0,0,11.33-6.66L230.07,71,195.16,6.77A13,13,0,0,0,183.77,0Z"/><path class="cls-2" d="M160.52.51H10.8A10.8,10.8,0,0,0,0,11.31V132.74a10.79,10.79,0,0,0,10.8,10.8H159l40.13-72Z"/><text></text><polygon class="cls-3" points="65.32 85.44 33.6 37.67 23.73 37.67 23.73 103.32 33.76 103.32 33.76 56.67 64.58 103.17 64.68 103.32 75.34 103.32 75.34 37.67 65.32 37.67 65.32 85.44"/><rect class="cls-3" x="87.02" y="37.67" width="11.26" height="65.65"/><polygon class="cls-3" points="150.78 37.67 150.78 65.84 120.28 65.84 120.28 37.67 109.01 37.67 109.01 103.32 120.28 103.32 120.28 76.73 150.78 76.73 150.78 103.32 162.04 103.32 162.04 37.67 150.78 37.67"/></svg>