<svg xmlns="http://www.w3.org/2000/svg" viewBox="0 0 283.46 109.51"><defs><style>.cls-1{isolation:isolate;}.cls-2,.cls-3{fill:#2e3192;}.cls-3,.cls-4,.cls-6,.cls-7,.cls-9{fill-rule:evenodd;}.cls-3,.cls-4,.cls-5,.cls-6,.cls-7,.cls-8{mix-blend-mode:multiply;}.cls-4{fill:#ec008c;}.cls-5,.cls-6{fill:#bcbec0;}.cls-7,.cls-9{fill:#00bdf2;}</style></defs><title>logo-cancer-research-UK</title><g class="cls-1"><g id="Artwork"><path class="cls-2" d="M244.77,37.17a.9.9,0,0,1,1-1h10.56a.9.9,0,0,1,1,1v.62a.91.91,0,0,1-1,1h-8.56v6.78h6.78a.91.91,0,0,1,1,1v.61a.9.9,0,0,1-1,1h-6.78v7h9.08a.89.89,0,0,1,1,1v.61a.89.89,0,0,1-1,1H245.78a.9.9,0,0,1-1-1ZM170.41,35.8A12,12,0,0,1,177.59,38a1,1,0,0,1,.18,1.42l-.39.61a.91.91,0,0,1-1.42.24,9.77,9.77,0,0,0-5.43-1.72c-5,0-8,3.68-8,8.26s3,8.55,8,8.55a9.73,9.73,0,0,0,5.89-2.11.9.9,0,0,1,1.42.12l.45.61a.94.94,0,0,1-.15,1.41,11.92,11.92,0,0,1-7.7,2.76c-6.69,0-11.07-5-11.07-11.31A10.7,10.7,0,0,1,170.41,35.8ZM187.55,37a1.07,1.07,0,0,1,1.14-.83h1.47a1.08,1.08,0,0,1,1.13.83l7.12,19.66c.25.71-.09,1.17-.83,1.17h-1a1.09,1.09,0,0,1-1.13-.83l-1.94-5.4h-8.15L183.41,57a1.06,1.06,0,0,1-1.1.83h-1.05c-.76,0-1.07-.46-.82-1.17Zm5.13,12.08-2.4-6.87c-.36-1.1-.83-3.06-.83-3.06h-.06s-.49,2-.85,3.06l-2.43,6.87Zm8.65-11.9a.89.89,0,0,1,1-1h1.16a1.28,1.28,0,0,1,1.23.68L214,50.24c.77,1.17,1.78,3.13,1.78,3.13h.06s-.18-1.93-.18-3.13V37.17a.91.91,0,0,1,1-1h1a.9.9,0,0,1,1,1V56.8a.9.9,0,0,1-1,1h-1.17a1.24,1.24,0,0,1-1.2-.68L206,43.77c-.77-1.2-1.78-3.16-1.78-3.16h-.06s.18,1.93.18,3.16v13a.9.9,0,0,1-1,1h-1a.89.89,0,0,1-1-1Zm32-1.37A11.94,11.94,0,0,1,240.47,38a1,1,0,0,1,.19,1.42l-.4.61a.9.9,0,0,1-1.41.24,9.8,9.8,0,0,0-5.43-1.72c-5,0-8,3.68-8,8.26s3,8.55,8,8.55a9.78,9.78,0,0,0,5.89-2.11.89.89,0,0,1,1.41.12l.46.61a.94.94,0,0,1-.16,1.41,11.91,11.91,0,0,1-7.69,2.76c-6.69,0-11.08-5-11.08-11.31A10.7,10.7,0,0,1,233.29,35.8Zm27.77,1.37a.9.9,0,0,1,1-1h5.83a9.62,9.62,0,0,1,4.05.58,5.9,5.9,0,0,1,3.41,5.68,6,6,0,0,1-3.87,5.95v.06a6.16,6.16,0,0,1,.64,1l3.9,7.21c.4.7.09,1.2-.67,1.2h-1.23a1.2,1.2,0,0,1-1.2-.71L268.7,49.2h-4.64v7.6a.89.89,0,0,1-1,1h-1a.9.9,0,0,1-1-1Zm7.36,9.39a3.7,3.7,0,0,0,3.87-4,3.41,3.41,0,0,0-2-3.37,5.93,5.93,0,0,0-2.58-.37h-3.62v7.76ZM160.75,67.07a.89.89,0,0,1,1-1h5.83a9.45,9.45,0,0,1,4,.59,5.88,5.88,0,0,1,3.4,5.67,6,6,0,0,1-3.86,6v.06a6.16,6.16,0,0,1,.64,1l3.9,7.21c.4.71.09,1.2-.68,1.2h-1.22a1.19,1.19,0,0,1-1.2-.71l-4.23-7.91h-4.64v7.61a.89.89,0,0,1-1,1h-1a.89.89,0,0,1-1-1Zm7.36,9.39a3.71,3.71,0,0,0,3.87-4,3.41,3.41,0,0,0-2-3.37,5.93,5.93,0,0,0-2.58-.37h-3.62v7.76Zm11.36-9.39a.9.9,0,0,1,1-1H191a.9.9,0,0,1,1,1v.62a.91.91,0,0,1-1,1h-8.56v6.78h6.78a.91.91,0,0,1,1,1v.61a.91.91,0,0,1-1,1h-6.78v7h9.08a.9.9,0,0,1,1,1v.62a.9.9,0,0,1-1,1H180.49a.9.9,0,0,1-1-1Zm15.87,17.37.52-.74a.89.89,0,0,1,1.38-.18A8,8,0,0,0,202,85.27c2.3,0,3.8-1.23,3.8-3.1,0-4.79-10.43-3.71-10.43-10.47,0-3.64,3.07-6,7-6a9.33,9.33,0,0,1,5.43,1.65,1,1,0,0,1,.31,1.38l-.43.77c-.37.64-.86.58-1.38.27a7.56,7.56,0,0,0-4-1.25c-2.24,0-3.89,1.16-3.89,3,0,4.66,10.43,3.41,10.43,10.37,0,3.41-2.55,6.17-6.87,6.17a10.71,10.71,0,0,1-6.51-2.24A.93.93,0,0,1,195.34,84.44Zm17.38-17.37a.9.9,0,0,1,1-1h10.56a.9.9,0,0,1,1,1v.62a.91.91,0,0,1-1,1h-8.56v6.78h6.78a.91.91,0,0,1,1,1v.61a.91.91,0,0,1-1,1h-6.78v7h9.08a.9.9,0,0,1,1,1v.62a.9.9,0,0,1-1,1H213.73a.9.9,0,0,1-1-1Zm22.37-.18a1.06,1.06,0,0,1,1.13-.83h1.48a1.08,1.08,0,0,1,1.13.83L246,86.55c.24.71-.1,1.17-.83,1.17h-1.05a1.1,1.1,0,0,1-1.13-.83L241,81.49h-8.16l-1.9,5.4a1.08,1.08,0,0,1-1.11.83h-1c-.77,0-1.07-.46-.83-1.17ZM240.21,79l-2.39-6.87C237.45,71,237,69,237,69h-.06s-.49,2-.86,3.06L233.65,79Zm8.65-11.9a.9.9,0,0,1,1-1h5.83a9.42,9.42,0,0,1,4.05.59,5.89,5.89,0,0,1,3.41,5.67,6,6,0,0,1-3.87,6v.06a5.69,5.69,0,0,1,.65,1l3.89,7.21c.4.71.09,1.2-.67,1.2h-1.23a1.2,1.2,0,0,1-1.2-.71L256.5,79.1h-4.64v7.61a.89.89,0,0,1-1,1h-1a.9.9,0,0,1-1-1Zm7.36,9.39a3.71,3.71,0,0,0,3.87-4,3.41,3.41,0,0,0-2-3.37,5.9,5.9,0,0,0-2.57-.37h-3.63v7.76ZM277.11,65.7a11.83,11.83,0,0,1,7.17,2.23,1,1,0,0,1,.19,1.41l-.4.62a.9.9,0,0,1-1.41.24,9.8,9.8,0,0,0-5.43-1.72c-5,0-8,3.68-8,8.26s3,8.55,8,8.55a9.69,9.69,0,0,0,5.89-2.11.89.89,0,0,1,1.41.12l.46.62a.93.93,0,0,1-.16,1.41,12,12,0,0,1-7.69,2.76c-6.69,0-11.08-5-11.08-11.32A10.7,10.7,0,0,1,277.11,65.7Zm11.48,1.37a.89.89,0,0,1,1-1h1a.9.9,0,0,1,1,1V75.6h11.26V67.07a.91.91,0,0,1,1-1h1a.88.88,0,0,1,1,1V86.71a.88.88,0,0,1-1,1h-1a.91.91,0,0,1-1-1v-8.5H291.59v8.5a.9.9,0,0,1-1,1h-1a.89.89,0,0,1-1-1ZM160.69,96.4a.69.69,0,0,1,.76-.76h.62a.69.69,0,0,1,.76.76v13.25c0,3.72,2.4,5.93,6.11,5.93s6.13-2.21,6.13-6V96.4a.69.69,0,0,1,.77-.76h.61a.67.67,0,0,1,.74.76v13.29c0,4.78-3.34,7.88-8.22,7.88s-8.28-3.1-8.28-7.88Zm21.73,0a.66.66,0,0,1,.73-.76h.64a.68.68,0,0,1,.74.76V105h3.65l5.49-8.83a.93.93,0,0,1,.89-.52h.77c.61,0,.83.4.52.92L190,105.82v.06l6.32,10.43c.33.49.09.89-.49.89h-.86a.94.94,0,0,1-.89-.52l-5.86-9.78h-3.65v9.54a.69.69,0,0,1-.74.76h-.64a.67.67,0,0,1-.73-.76Z" transform="translate(-22.39 -22.39)"/><path class="cls-3" d="M105.61,44.94a5.23,5.23,0,1,1-5.23-5.23A5.22,5.22,0,0,1,105.61,44.94Z" transform="translate(-22.39 -22.39)"/><path class="cls-3" d="M75.73,62.13A7.11,7.11,0,1,1,68.62,55,7.11,7.11,0,0,1,75.73,62.13Z" transform="translate(-22.39 -22.39)"/><path class="cls-3" d="M92.62,27.21a4.4,4.4,0,1,1-4.4-4.41A4.39,4.39,0,0,1,92.62,27.21Z" transform="translate(-22.39 -22.39)"/><path class="cls-4" d="M57.12,42.28a2.57,2.57,0,1,1-2.57-2.57A2.57,2.57,0,0,1,57.12,42.28Z" transform="translate(-22.39 -22.39)"/><circle class="cls-5" cx="102.48" cy="24.02" r="2.75"/><path class="cls-4" d="M86.36,50.26a3.58,3.58,0,1,1-3.58-3.57A3.58,3.58,0,0,1,86.36,50.26Z" transform="translate(-22.39 -22.39)"/><path class="cls-6" d="M62.29,62.55a3.44,3.44,0,1,1-3.43-3.44A3.43,3.43,0,0,1,62.29,62.55Z" transform="translate(-22.39 -22.39)"/><path class="cls-3" d="M86,44.49a2.61,2.61,0,1,1-2.61-2.62A2.62,2.62,0,0,1,86,44.49Z" transform="translate(-22.39 -22.39)"/><path class="cls-3" d="M112.67,44.85a2.75,2.75,0,1,1-2.75-2.75A2.75,2.75,0,0,1,112.67,44.85Z" transform="translate(-22.39 -22.39)"/><path class="cls-3" d="M82,53.66a2.75,2.75,0,1,1-2.74-2.76A2.74,2.74,0,0,1,82,53.66Z" transform="translate(-22.39 -22.39)"/><path class="cls-3" d="M116.8,30.55a2.48,2.48,0,1,1-2.48-2.47A2.48,2.48,0,0,1,116.8,30.55Z" transform="translate(-22.39 -22.39)"/><path class="cls-3" d="M111.66,37.61a2.47,2.47,0,1,1-2.47-2.48A2.48,2.48,0,0,1,111.66,37.61Z" transform="translate(-22.39 -22.39)"/><path class="cls-3" d="M118.63,35.59a2.38,2.38,0,1,1-2.38-2.38A2.38,2.38,0,0,1,118.63,35.59Z" transform="translate(-22.39 -22.39)"/><path class="cls-4" d="M114.72,32.29a4.89,4.89,0,1,1-4.89-4.89A4.88,4.88,0,0,1,114.72,32.29Z" transform="translate(-22.39 -22.39)"/><path class="cls-3" d="M109.75,48.27A2.79,2.79,0,1,1,107,45.49,2.79,2.79,0,0,1,109.75,48.27Z" transform="translate(-22.39 -22.39)"/><path class="cls-4" d="M114.14,26.06a1.93,1.93,0,1,1-1.92-1.92A1.91,1.91,0,0,1,114.14,26.06Z" transform="translate(-22.39 -22.39)"/><path class="cls-3" d="M99.31,37.14A2.15,2.15,0,1,1,97.16,35,2.14,2.14,0,0,1,99.31,37.14Z" transform="translate(-22.39 -22.39)"/><path class="cls-3" d="M80.46,34.66a2.15,2.15,0,1,1-2.15-2.14A2.15,2.15,0,0,1,80.46,34.66Z" transform="translate(-22.39 -22.39)"/><path class="cls-4" d="M110.47,51.36a1.56,1.56,0,1,1-1.56-1.55A1.55,1.55,0,0,1,110.47,51.36Z" transform="translate(-22.39 -22.39)"/><path class="cls-6" d="M36.05,33a1.55,1.55,0,1,1-1.55-1.55A1.54,1.54,0,0,1,36.05,33Z" transform="translate(-22.39 -22.39)"/><path class="cls-3" d="M109.92,39.53A1.56,1.56,0,1,1,108.36,38,1.55,1.55,0,0,1,109.92,39.53Z" transform="translate(-22.39 -22.39)"/><path class="cls-4" d="M63.24,26.51A1.55,1.55,0,1,1,61.69,25,1.54,1.54,0,0,1,63.24,26.51Z" transform="translate(-22.39 -22.39)"/><path class="cls-6" d="M92,41.46a4.54,4.54,0,1,1-4.54-4.54A4.54,4.54,0,0,1,92,41.46Z" transform="translate(-22.39 -22.39)"/><path class="cls-4" d="M71.84,44.39a4.54,4.54,0,1,1-4.55-4.53A4.55,4.55,0,0,1,71.84,44.39Z" transform="translate(-22.39 -22.39)"/><path class="cls-6" d="M80,43.88a2.75,2.75,0,1,1-2.74-2.75A2.74,2.74,0,0,1,80,43.88Z" transform="translate(-22.39 -22.39)"/><path class="cls-6" d="M87.1,118.27a2.75,2.75,0,1,1-2.75-2.76A2.75,2.75,0,0,1,87.1,118.27Z" transform="translate(-22.39 -22.39)"/><path class="cls-7" d="M92.05,36.18a2.75,2.75,0,1,1-2.74-2.75A2.75,2.75,0,0,1,92.05,36.18Z" transform="translate(-22.39 -22.39)"/><path class="cls-4" d="M55.74,53A2.75,2.75,0,1,1,53,50.26,2.75,2.75,0,0,1,55.74,53Z" transform="translate(-22.39 -22.39)"/><path class="cls-4" d="M132.84,36.88a3.39,3.39,0,1,1-3.39-3.39A3.39,3.39,0,0,1,132.84,36.88Z" transform="translate(-22.39 -22.39)"/><path class="cls-4" d="M118.63,40.63a3.39,3.39,0,1,1-3.39-3.38A3.39,3.39,0,0,1,118.63,40.63Z" transform="translate(-22.39 -22.39)"/><path class="cls-4" d="M40.87,44.74a2.66,2.66,0,1,1-2.66-2.66A2.65,2.65,0,0,1,40.87,44.74Z" transform="translate(-22.39 -22.39)"/><path class="cls-3" d="M79.44,56.31a4.08,4.08,0,1,1-4.08-4.08A4.07,4.07,0,0,1,79.44,56.31Z" transform="translate(-22.39 -22.39)"/><path class="cls-6" d="M67.61,36.93a4.08,4.08,0,1,1-4.08-4.08A4.08,4.08,0,0,1,67.61,36.93Z" transform="translate(-22.39 -22.39)"/><path class="cls-4" d="M53.44,38a3.59,3.59,0,1,1-3.59-3.59A3.59,3.59,0,0,1,53.44,38Z" transform="translate(-22.39 -22.39)"/><path class="cls-6" d="M45.05,56A3.06,3.06,0,1,1,42,52.89,3.07,3.07,0,0,1,45.05,56Z" transform="translate(-22.39 -22.39)"/><path class="cls-7" d="M93.46,47.91a4.08,4.08,0,1,1-4.08-4.08A4.09,4.09,0,0,1,93.46,47.91Z" transform="translate(-22.39 -22.39)"/><path class="cls-3" d="M97,41.14a2.89,2.89,0,0,1-5.77,0,2.89,2.89,0,1,1,5.77,0Z" transform="translate(-22.39 -22.39)"/><path class="cls-3" d="M99.15,32.43a2.89,2.89,0,1,1-2.89-2.89A2.9,2.9,0,0,1,99.15,32.43Z" transform="translate(-22.39 -22.39)"/><path class="cls-3" d="M62,81.93A2.75,2.75,0,1,1,64.8,79.2,2.74,2.74,0,0,1,62,81.93Z" transform="translate(-22.39 -22.39)"/><path class="cls-6" d="M58.56,88.28A3.45,3.45,0,1,1,62,84.86,3.44,3.44,0,0,1,58.56,88.28Z" transform="translate(-22.39 -22.39)"/><path class="cls-6" d="M77.82,51.53a3,3,0,1,1,3-3A3,3,0,0,1,77.82,51.53Z" transform="translate(-22.39 -22.39)"/><path class="cls-3" d="M32.64,72.06a2.76,2.76,0,1,1,2.76-2.74A2.76,2.76,0,0,1,32.64,72.06Z" transform="translate(-22.39 -22.39)"/><path class="cls-4" d="M24.44,60.6a2.06,2.06,0,1,1,0-4.12,2.06,2.06,0,1,1,0,4.12Z" transform="translate(-22.39 -22.39)"/><path class="cls-7" d="M25.41,99.62a2.06,2.06,0,1,1,2.07-2A2.05,2.05,0,0,1,25.41,99.62Z" transform="translate(-22.39 -22.39)"/><path class="cls-7" d="M51.05,88.68a2.75,2.75,0,1,1,0-5.5A2.77,2.77,0,0,1,53.82,86,2.74,2.74,0,0,1,51.05,88.68Z" transform="translate(-22.39 -22.39)"/><path class="cls-7" d="M95.74,128.45a2.13,2.13,0,1,1,2.14-2.11A2.13,2.13,0,0,1,95.74,128.45Z" transform="translate(-22.39 -22.39)"/><path class="cls-6" d="M70.57,79.91a2.61,2.61,0,1,1,2.62-2.59A2.61,2.61,0,0,1,70.57,79.91Z" transform="translate(-22.39 -22.39)"/><path class="cls-3" d="M54.56,75.19a2.75,2.75,0,1,1,2.76-2.72A2.74,2.74,0,0,1,54.56,75.19Z" transform="translate(-22.39 -22.39)"/><path class="cls-6" d="M72.59,54.68a2.75,2.75,0,1,1,2.77-2.74A2.75,2.75,0,0,1,72.59,54.68Z" transform="translate(-22.39 -22.39)"/><path class="cls-3" d="M59.38,54.76A3.79,3.79,0,1,1,63.19,51,3.77,3.77,0,0,1,59.38,54.76Z" transform="translate(-22.39 -22.39)"/><path class="cls-6" d="M66.82,81.91a2.12,2.12,0,1,1,2.12-2.11A2.12,2.12,0,0,1,66.82,81.91Z" transform="translate(-22.39 -22.39)"/><path class="cls-3" d="M69.29,88.32a4.54,4.54,0,1,1,4.56-4.51A4.54,4.54,0,0,1,69.29,88.32Z" transform="translate(-22.39 -22.39)"/><path class="cls-6" d="M69.29,76.81a3.45,3.45,0,1,1,3.46-3.43A3.44,3.44,0,0,1,69.29,76.81Z" transform="translate(-22.39 -22.39)"/><path class="cls-3" d="M62.07,76.26a4.08,4.08,0,1,1,4.1-4.06A4.08,4.08,0,0,1,62.07,76.26Z" transform="translate(-22.39 -22.39)"/><path class="cls-4" d="M65.43,89.47a4.08,4.08,0,1,1,4.1-4A4.08,4.08,0,0,1,65.43,89.47Z" transform="translate(-22.39 -22.39)"/><path class="cls-6" d="M72.18,91.56a2.89,2.89,0,1,1,2.91-2.88A2.89,2.89,0,0,1,72.18,91.56Z" transform="translate(-22.39 -22.39)"/><path class="cls-3" d="M110.66,26.61a3.4,3.4,0,1,1-3.4-3.39A3.4,3.4,0,0,1,110.66,26.61Z" transform="translate(-22.39 -22.39)"/><path class="cls-4" d="M122.4,47.14a5,5,0,1,1-5-4.94A5,5,0,0,1,122.4,47.14Z" transform="translate(-22.39 -22.39)"/><path class="cls-4" d="M139.46,43.59a4.4,4.4,0,1,1-4.41-4.4A4.4,4.4,0,0,1,139.46,43.59Z" transform="translate(-22.39 -22.39)"/><path class="cls-4" d="M103.41,27.48a5.09,5.09,0,1,1-5.08-5.09A5.08,5.08,0,0,1,103.41,27.48Z" transform="translate(-22.39 -22.39)"/><path class="cls-3" d="M127.89,39.76a4.08,4.08,0,1,1-4.08-4.08A4.08,4.08,0,0,1,127.89,39.76Z" transform="translate(-22.39 -22.39)"/><path class="cls-3" d="M134.7,41.53a4.08,4.08,0,1,1-4.08-4.07A4.08,4.08,0,0,1,134.7,41.53Z" transform="translate(-22.39 -22.39)"/><path class="cls-6" d="M129,33.86a2.74,2.74,0,1,1-2.74-2.73A2.73,2.73,0,0,1,129,33.86Z" transform="translate(-22.39 -22.39)"/><path class="cls-3" d="M122.21,35.41a2.29,2.29,0,1,1-2.29-2.29A2.3,2.3,0,0,1,122.21,35.41Z" transform="translate(-22.39 -22.39)"/><path class="cls-6" d="M105.71,36.1a3,3,0,1,1-3-3A3,3,0,0,1,105.71,36.1Z" transform="translate(-22.39 -22.39)"/><path class="cls-7" d="M80.49,27.34a3,3,0,1,1-3-3A3,3,0,0,1,80.49,27.34Z" transform="translate(-22.39 -22.39)"/><path class="cls-3" d="M69.22,31.7A2.24,2.24,0,1,1,67,29.46,2.23,2.23,0,0,1,69.22,31.7Z" transform="translate(-22.39 -22.39)"/><path class="cls-4" d="M124,31.51a3.34,3.34,0,1,1-3.34-3.35A3.34,3.34,0,0,1,124,31.51Z" transform="translate(-22.39 -22.39)"/><path class="cls-6" d="M139.72,108.81a5.09,5.09,0,1,0-5.09,5.08A5.09,5.09,0,0,0,139.72,108.81Z" transform="translate(-22.39 -22.39)"/><path class="cls-3" d="M106.17,108.35a5.23,5.23,0,1,0-5.23,5.22A5.23,5.23,0,0,0,106.17,108.35Z" transform="translate(-22.39 -22.39)"/><path class="cls-4" d="M51.91,67.14a3.66,3.66,0,1,0-3.66,3.67A3.66,3.66,0,0,0,51.91,67.14Z" transform="translate(-22.39 -22.39)"/><path class="cls-4" d="M104.79,123.47a4.4,4.4,0,1,0-4.41,4.41A4.39,4.39,0,0,0,104.79,123.47Z" transform="translate(-22.39 -22.39)"/><path class="cls-4" d="M93,125.08a4.4,4.4,0,1,0-4.4,4.39A4.4,4.4,0,0,0,93,125.08Z" transform="translate(-22.39 -22.39)"/><path class="cls-6" d="M129.54,100.79a5.5,5.5,0,1,0-5.5,5.5A5.5,5.5,0,0,0,129.54,100.79Z" transform="translate(-22.39 -22.39)"/><path class="cls-4" d="M129.54,107.12a2.75,2.75,0,1,0-2.75,2.75A2.75,2.75,0,0,0,129.54,107.12Z" transform="translate(-22.39 -22.39)"/><path class="cls-4" d="M140.23,107.65a2.75,2.75,0,1,0-2.75,2.75A2.76,2.76,0,0,0,140.23,107.65Z" transform="translate(-22.39 -22.39)"/><path class="cls-4" d="M87.06,103.8a2.76,2.76,0,1,0-2.75,2.76A2.75,2.75,0,0,0,87.06,103.8Z" transform="translate(-22.39 -22.39)"/><path class="cls-4" d="M53.39,106.54A3.44,3.44,0,1,0,50,110,3.43,3.43,0,0,0,53.39,106.54Z" transform="translate(-22.39 -22.39)"/><path class="cls-7" d="M63.05,111.67a2.75,2.75,0,1,0-2.75,2.75A2.75,2.75,0,0,0,63.05,111.67Z" transform="translate(-22.39 -22.39)"/><path class="cls-3" d="M83.15,101.43a3.06,3.06,0,1,0-3.06,3.06A3.07,3.07,0,0,0,83.15,101.43Z" transform="translate(-22.39 -22.39)"/><path class="cls-4" d="M70.77,98.48A2.75,2.75,0,1,0,68,101.23,2.74,2.74,0,0,0,70.77,98.48Z" transform="translate(-22.39 -22.39)"/><path class="cls-3" d="M41.27,114.27A2.75,2.75,0,1,0,38.52,117,2.75,2.75,0,0,0,41.27,114.27Z" transform="translate(-22.39 -22.39)"/><path class="cls-4" d="M45.6,100.05a2.76,2.76,0,1,0-2.76,2.75A2.76,2.76,0,0,0,45.6,100.05Z" transform="translate(-22.39 -22.39)"/><path class="cls-4" d="M88.24,106.06a3.43,3.43,0,1,0-3.44,3.44A3.44,3.44,0,0,0,88.24,106.06Z" transform="translate(-22.39 -22.39)"/><path class="cls-4" d="M123.13,94.69a2.75,2.75,0,1,0-2.76,2.74A2.76,2.76,0,0,0,123.13,94.69Z" transform="translate(-22.39 -22.39)"/><path class="cls-3" d="M113.23,108.44a2.76,2.76,0,1,0-2.75,2.75A2.75,2.75,0,0,0,113.23,108.44Z" transform="translate(-22.39 -22.39)"/><path class="cls-3" d="M79.69,113.63a2.75,2.75,0,1,0-2.75,2.75A2.75,2.75,0,0,0,79.69,113.63Z" transform="translate(-22.39 -22.39)"/><path class="cls-4" d="M71.09,124.58a2.76,2.76,0,1,0-2.76,2.76A2.75,2.75,0,0,0,71.09,124.58Z" transform="translate(-22.39 -22.39)"/><path class="cls-3" d="M117.35,122.74a2.48,2.48,0,1,0-2.48,2.47A2.49,2.49,0,0,0,117.35,122.74Z" transform="translate(-22.39 -22.39)"/><path class="cls-4" d="M111.66,120.59a2.47,2.47,0,1,0-2.47,2.47A2.46,2.46,0,0,0,111.66,120.59Z" transform="translate(-22.39 -22.39)"/><path class="cls-6" d="M119.43,117.88a4,4,0,1,0-4,4A4,4,0,0,0,119.43,117.88Z" transform="translate(-22.39 -22.39)"/><path class="cls-4" d="M134.1,103.07a2.77,2.77,0,1,0-2.77,2.76A2.77,2.77,0,0,0,134.1,103.07Z" transform="translate(-22.39 -22.39)"/><path class="cls-4" d="M70,92.62A1.93,1.93,0,1,0,68,94.54,1.91,1.91,0,0,0,70,92.62Z" transform="translate(-22.39 -22.39)"/><path class="cls-4" d="M109.88,105a2.79,2.79,0,1,0-2.79,2.78A2.79,2.79,0,0,0,109.88,105Z" transform="translate(-22.39 -22.39)"/><path class="cls-4" d="M119.39,100.38a3.17,3.17,0,1,0-3.92,2.17A3.17,3.17,0,0,0,119.39,100.38Z" transform="translate(-22.39 -22.39)"/><path class="cls-4" d="M110.92,102.77a1.55,1.55,0,1,0-1.55,1.55A1.55,1.55,0,0,0,110.92,102.77Z" transform="translate(-22.39 -22.39)"/><path class="cls-6" d="M120.37,125.59a1.56,1.56,0,1,0-1.56,1.54A1.56,1.56,0,0,0,120.37,125.59Z" transform="translate(-22.39 -22.39)"/><path class="cls-3" d="M114.28,102.18a2.07,2.07,0,1,0-2.56,1.43A2.06,2.06,0,0,0,114.28,102.18Z" transform="translate(-22.39 -22.39)"/><path class="cls-3" d="M77.49,107.93a3.28,3.28,0,1,0-3.28,3.28A3.28,3.28,0,0,0,77.49,107.93Z" transform="translate(-22.39 -22.39)"/><path class="cls-4" d="M51.82,116.73a2,2,0,1,0-2,2A2,2,0,0,0,51.82,116.73Z" transform="translate(-22.39 -22.39)"/><path class="cls-4" d="M64.44,101.6a1.55,1.55,0,1,0-1.54,1.55A1.55,1.55,0,0,0,64.44,101.6Z" transform="translate(-22.39 -22.39)"/><path class="cls-4" d="M68.48,52.65a1.56,1.56,0,1,0-1.55,1.55A1.55,1.55,0,0,0,68.48,52.65Z" transform="translate(-22.39 -22.39)"/><path class="cls-4" d="M98.47,47.8a2.3,2.3,0,1,0-2.3,2.3A2.31,2.31,0,0,0,98.47,47.8Z" transform="translate(-22.39 -22.39)"/><path class="cls-4" d="M100.2,129.91a2,2,0,1,0-2,2A2,2,0,0,0,100.2,129.91Z" transform="translate(-22.39 -22.39)"/><path class="cls-3" d="M86.55,112.44A4.54,4.54,0,1,0,82,117,4.55,4.55,0,0,0,86.55,112.44Z" transform="translate(-22.39 -22.39)"/><path class="cls-3" d="M68,107.73a5.42,5.42,0,1,0-5.42,5.43A5.42,5.42,0,0,0,68,107.73Z" transform="translate(-22.39 -22.39)"/><path class="cls-4" d="M134.65,115.15A4.65,4.65,0,1,0,130,119.8,4.65,4.65,0,0,0,134.65,115.15Z" transform="translate(-22.39 -22.39)"/><path class="cls-3" d="M119.18,112.66a3.39,3.39,0,1,0-3.39,3.38A3.39,3.39,0,0,0,119.18,112.66Z" transform="translate(-22.39 -22.39)"/><path class="cls-3" d="M97.84,107.58A3.4,3.4,0,1,0,94.45,111,3.4,3.4,0,0,0,97.84,107.58Z" transform="translate(-22.39 -22.39)"/><path class="cls-3" d="M94.06,107A4.08,4.08,0,1,0,90,111.09,4.07,4.07,0,0,0,94.06,107Z" transform="translate(-22.39 -22.39)"/><path class="cls-3" d="M62.8,94.17A4.82,4.82,0,1,0,58,99,4.81,4.81,0,0,0,62.8,94.17Z" transform="translate(-22.39 -22.39)"/><path class="cls-3" d="M45.27,88.61A3.35,3.35,0,1,0,41.92,92,3.34,3.34,0,0,0,45.27,88.61Z" transform="translate(-22.39 -22.39)"/><path class="cls-3" d="M79.24,96.66a4.81,4.81,0,1,0-4.81,4.81A4.81,4.81,0,0,0,79.24,96.66Z" transform="translate(-22.39 -22.39)"/><path class="cls-4" d="M94.66,112.15A2.89,2.89,0,1,0,91.77,115,2.89,2.89,0,0,0,94.66,112.15Z" transform="translate(-22.39 -22.39)"/><path class="cls-6" d="M51.49,75.78a3.79,3.79,0,1,0-3.7,3.87A3.79,3.79,0,0,0,51.49,75.78Z" transform="translate(-22.39 -22.39)"/><path class="cls-7" d="M93.28,120.12A2.89,2.89,0,1,0,90.4,123,2.89,2.89,0,0,0,93.28,120.12Z" transform="translate(-22.39 -22.39)"/><path class="cls-3" d="M77.88,102.8A2.89,2.89,0,1,0,75,105.68,2.89,2.89,0,0,0,77.88,102.8Z" transform="translate(-22.39 -22.39)"/><path class="cls-3" d="M80.34,125.9a2.89,2.89,0,1,0-2.89,2.89A2.89,2.89,0,0,0,80.34,125.9Z" transform="translate(-22.39 -22.39)"/><path class="cls-4" d="M111.21,126.69a3.4,3.4,0,1,0-3.4,3.38A3.4,3.4,0,0,0,111.21,126.69Z" transform="translate(-22.39 -22.39)"/><path class="cls-4" d="M97.79,117.05a3.39,3.39,0,1,0-3.39,3.39A3.4,3.4,0,0,0,97.79,117.05Z" transform="translate(-22.39 -22.39)"/><path class="cls-4" d="M122.94,106.14a4.95,4.95,0,1,0-5,5A4.95,4.95,0,0,0,122.94,106.14Z" transform="translate(-22.39 -22.39)"/><path class="cls-3" d="M111.94,115.44a5.78,5.78,0,1,0-5.77,5.78A5.77,5.77,0,0,0,111.94,115.44Z" transform="translate(-22.39 -22.39)"/><path class="cls-4" d="M57.88,102.44a3.85,3.85,0,1,0-4,3.71A3.85,3.85,0,0,0,57.88,102.44Z" transform="translate(-22.39 -22.39)"/><path class="cls-4" d="M79.48,38.08a3.85,3.85,0,1,0-3.85,3.86A3.85,3.85,0,0,0,79.48,38.08Z" transform="translate(-22.39 -22.39)"/><path class="cls-7" d="M127.57,113a3.53,3.53,0,1,0-3.53,3.52A3.51,3.51,0,0,0,127.57,113Z" transform="translate(-22.39 -22.39)"/><path class="cls-3" d="M127.45,120.26a2.4,2.4,0,1,0-2.4,2.4A2.4,2.4,0,0,0,127.45,120.26Z" transform="translate(-22.39 -22.39)"/><path class="cls-3" d="M123.67,117.84a2.29,2.29,0,1,0-2.29,2.29A2.29,2.29,0,0,0,123.67,117.84Z" transform="translate(-22.39 -22.39)"/><path class="cls-4" d="M102.9,119.51a3,3,0,1,0-3,3A3,3,0,0,0,102.9,119.51Z" transform="translate(-22.39 -22.39)"/><path class="cls-4" d="M70.34,117.53a4.4,4.4,0,1,0,3.53-5.13A4.41,4.41,0,0,0,70.34,117.53Z" transform="translate(-22.39 -22.39)"/><path class="cls-4" d="M31.6,82.89a1.87,1.87,0,1,0,1.5-2.18A1.87,1.87,0,0,0,31.6,82.89Z" transform="translate(-22.39 -22.39)"/><path class="cls-7" d="M40.19,68.89A1.54,1.54,0,0,0,42,70.12a1.53,1.53,0,0,0-.55-3A1.54,1.54,0,0,0,40.19,68.89Z" transform="translate(-22.39 -22.39)"/><path class="cls-4" d="M124.55,121.77a3.35,3.35,0,1,0-3.35,3.36A3.36,3.36,0,0,0,124.55,121.77Z" transform="translate(-22.39 -22.39)"/><path class="cls-4" d="M135.63,46.93a3.39,3.39,0,1,1-3.4-3.39A3.4,3.4,0,0,1,135.63,46.93Z" transform="translate(-22.39 -22.39)"/><g class="cls-8"><path class="cls-3" d="M130.82,51.37a4.53,4.53,0,1,1-4.54-4.53A4.53,4.53,0,0,1,130.82,51.37Z" transform="translate(-22.39 -22.39)"/><path class="cls-4" d="M123.78,53.52A2.75,2.75,0,1,1,121,50.77,2.75,2.75,0,0,1,123.78,53.52Z" transform="translate(-22.39 -22.39)"/><path class="cls-9" d="M116.83,52.79A2.75,2.75,0,1,1,114.07,50,2.75,2.75,0,0,1,116.83,52.79Z" transform="translate(-22.39 -22.39)"/><path class="cls-4" d="M123.84,56.72A2.74,2.74,0,1,1,121.1,54,2.74,2.74,0,0,1,123.84,56.72Z" transform="translate(-22.39 -22.39)"/><path class="cls-3" d="M120,53.82a2.74,2.74,0,1,1-2.74-2.74A2.74,2.74,0,0,1,120,53.82Z" transform="translate(-22.39 -22.39)"/></g></g></g></svg>