<svg id="Layer_1" data-name="Layer 1" xmlns="http://www.w3.org/2000/svg" viewBox="0 0 234.14 228.19"><defs><style>.cls-1{fill:#64666a;}</style></defs><title>icon-calendar</title><path class="cls-1" d="M196.71,31.33H182.48V7a7,7,0,0,0-14,0V31.33H65.66V7a7,7,0,0,0-14,0V31.33H37.43A37.47,37.47,0,0,0,0,68.76v122a37.47,37.47,0,0,0,37.43,37.43H196.71a37.47,37.47,0,0,0,37.43-37.43v-122A37.47,37.47,0,0,0,196.71,31.33Zm-159.28,14H51.66V65.16a7,7,0,1,0,14,0h0V45.33H168.48V65.16a7,7,0,0,0,14,0V45.33h14.23a23.47,23.47,0,0,1,23.43,23.43v16.4H14V68.76A23.47,23.47,0,0,1,37.43,45.33ZM196.71,214.16H37.43A23.47,23.47,0,0,1,14,190.73V99.16H220.14v91.57A23.47,23.47,0,0,1,196.71,214.16Z"/></svg>