<svg id="Layer_1" data-name="Layer 1" xmlns="http://www.w3.org/2000/svg" viewBox="0 0 82.17 69.6"><defs><style>.cls-1{fill:#900000;}</style></defs><title>icon-facetarrow-right</title><path class="cls-1" d="M5.26,29.54H64.2L43.65,9a5.26,5.26,0,1,1,7.44-7.45L80.62,31.08a3.33,3.33,0,0,1,.36.39l.13.17.17.24.14.22c0,.08.09.15.13.22l.11.24a1.63,1.63,0,0,1,.11.23,1.55,1.55,0,0,1,.08.23c0,.09.07.17.09.25a2.1,2.1,0,0,1,.06.24c0,.09,0,.18.07.26a2.89,2.89,0,0,1,0,.29,1.66,1.66,0,0,1,0,.22,4.52,4.52,0,0,1,0,1,1.81,1.81,0,0,1,0,.23,2.7,2.7,0,0,1,0,.28,2.5,2.5,0,0,1-.07.26,2.1,2.1,0,0,1-.06.24,2.5,2.5,0,0,1-.09.25,2.25,2.25,0,0,1-.08.24c0,.07-.07.15-.11.23s-.07.16-.11.23-.09.15-.13.22l-.14.22a2.15,2.15,0,0,1-.18.24l-.12.18c-.12.13-.23.26-.36.39L51.09,68.06a5.26,5.26,0,0,1-7.44-7.44L64.2,40.06H5.26a5.26,5.26,0,0,1,0-10.52Z"/></svg>