<svg height="21" viewBox="0 0 19 21" width="19" xmlns="http://www.w3.org/2000/svg"><path d="m3.744 4.718c-.358 0-.648-.29-.648-.649v-2.712c0-.358.29-.649.648-.649s.649.29.649.649v2.712c0 .358-.291.649-.649.649zm11.262 0c-.358 0-.649-.29-.649-.649v-2.712c0-.358.291-.649.649-.649s.648.29.648.649v2.712c0 .358-.29.649-.648.649zm1.562 12.685v-8.86c0-.354-.316-.641-.708-.641h-12.97c-.391 0-.708.287-.708.64v8.861c0 .354.317.64.708.64h12.97c.391 0 .708-.286.708-.64zm.413-14.454c.977 0 1.77.792 1.77 1.769v13.68c0 .976-.793 1.768-1.77 1.768h-15.212c-.977 0-1.769-.792-1.769-1.769v-13.68c0-.975.792-1.767 1.77-1.767h.619v1.12c0 .748.608 1.357 1.356 1.357s1.356-.609 1.356-1.357v-1.12h8.55v1.12c0 .748.608 1.357 1.356 1.357s1.356-.609 1.356-1.357v-1.12h.619zm-13.561 9.571v-3.513h3.433v3.512h-3.431zm4.321 0v-3.513h3.432v3.512h-3.431zm-4.32 4.316v-3.511h3.432v3.511h-3.431zm4.32 0v-3.511h3.432v3.511h-3.431zm4.48-4.316v-3.513h3.432v3.512h-3.431zm0 4.316v-3.511h3.432v3.511h-3.431z" fill="#525767" fill-rule="evenodd"/></svg>