<svg id="Layer_1" data-name="Layer 1" xmlns="http://www.w3.org/2000/svg" viewBox="0 0 84.65 95.65"><defs><style>.cls-1{fill:#b14c4c;}.cls-2{fill:#45b3c3;}</style></defs><title>icon-modellist-full-red</title><path class="cls-1" d="M0,0V84H64V26H40a2.07,2.07,0,0,1-2-2V0ZM42,2V22H62ZM19.81,29a2,2,0,0,1,1.69,3.34l-7,8a2,2,0,0,1-2.82.17l-.09-.07-3-3a2,2,0,1,1,2.76-2.9l.06.05,1.5,1.5,5.59-6.4A2,2,0,0,1,19.81,29Zm6,6H54a2,2,0,0,1,.06,4H26a2,2,0,0,1-.19-4Zm-6,11a2,2,0,0,1,1.69,3.34l-7,8a2,2,0,0,1-2.82.17l-.09-.07-3-3a2,2,0,0,1,2.76-2.9l.06.05,1.5,1.5,5.59-6.4A2,2,0,0,1,19.81,46Zm6,6H54a2,2,0,0,1,.06,4H26a2,2,0,0,1-.19-4Zm-6,11a2,2,0,0,1,1.69,3.34l-7,8a2,2,0,0,1-2.82.17l-.09-.07-3-3a2,2,0,0,1,2.76-2.9l.06,0,1.5,1.5,5.59-6.4A2,2,0,0,1,19.81,63Zm6,6H54a2,2,0,0,1,.06,4H26a2,2,0,0,1-.19-4Z"/><path class="cls-2" d="M60.33,95.65A24.33,24.33,0,1,1,84.65,71.32h0A24.35,24.35,0,0,1,60.33,95.65Z"/></svg>