<svg xmlns="http://www.w3.org/2000/svg" viewBox="0 0 494.29 84.32"><defs><style>.cls-1{fill:#231f20;}.cls-2{fill:#00b2bf;}</style></defs><path class="cls-1" d="M209.53,45.49a17.89,17.89,0,1,1,17.88,17.88A17.79,17.79,0,0,1,209.53,45.49Zm33.14,0a15.26,15.26,0,1,0-15.26,15.35A15.2,15.2,0,0,0,242.67,45.49Z"/><path class="cls-1" d="M265.51,48.61H254.56V62.82h-2.62V28.15h13.67a10.22,10.22,0,0,1,2.63,20.11l8.61,14.56h-3Zm-10.95-2.48h11.05a7.75,7.75,0,0,0,0-15.5H254.56Z"/><path class="cls-1" d="M315.3,48c0,8.38-6.39,15.36-16.75,15.36-10.75,0-18.23-8-18.23-17.88a17.58,17.58,0,0,1,18-17.89A17.09,17.09,0,0,1,313.27,36l-2.33,1.38a14.1,14.1,0,0,0-12.58-7.23A15,15,0,0,0,283,45.49c0,8.52,6.29,15.35,15.6,15.35,8.42,0,13.53-5.2,14.07-11.69H297.91V46.68H315.3Z"/><path class="cls-1" d="M340.61,54H323.23l-3.37,8.81h-2.78l13.48-34.67h2.77l13.43,34.67H344Zm-.94-2.48-7.73-20.16-7.72,20.16Z"/><path class="cls-1" d="M377.22,28.15V62.82h-2.33L354.44,33V62.82h-2.63V28.15h2.28L374.6,58V28.15Z"/><path class="cls-1" d="M383.86,45.49a17.89,17.89,0,1,1,17.89,17.88A17.79,17.79,0,0,1,383.86,45.49Zm33.14,0a15.26,15.26,0,1,0-15.25,15.35A15.19,15.19,0,0,0,417,45.49Z"/><path class="cls-1" d="M428.89,28.15V62.82h-2.62V28.15Z"/><path class="cls-1" d="M466.89,45.49c0,9.56-6.79,17.33-16.35,17.33h-13V28.15h13C460.1,28.15,466.89,35.93,466.89,45.49Zm-2.57,0c0-8.23-5.6-14.86-13.78-14.86h-10.4V60.35h10.4C458.72,60.35,464.32,53.71,464.32,45.49Z"/><path class="cls-1" d="M470.21,55.2l2.28-1.34c1.19,4.16,4.71,7,10.4,7s8.72-3,8.72-6.93c0-4.16-3.66-5.75-9-7.43-5.79-1.89-11-3.52-11-9.56,0-5.7,4.6-9.32,10.5-9.32a11.65,11.65,0,0,1,11.15,7.29l-2.23,1.23a9.12,9.12,0,0,0-8.92-6c-4.81,0-7.83,2.82-7.83,6.69,0,4.16,3.52,5.45,8.47,7.08,6.15,2,11.5,4,11.5,10,0,5.74-4.51,9.51-11.4,9.51C476.4,63.37,471.8,60.1,470.21,55.2Z"/><path class="cls-2" d="M122,41.42h-10.9V28.15h-7.92V62.82h7.92V49.05H122V62.82h7.93V28.15H122Zm32.45,9.52c0,2.62-1.24,4.85-5.45,4.85s-5.45-2.23-5.45-4.85V28.15h-7.92V51.63c0,7.43,5.74,11.89,13.37,11.89s13.38-4.46,13.38-11.89V28.15h-7.93Zm39.39,1.73c0,6.14-5,10.15-11.2,10.15H168.07V28.15h13.57c6,0,11,3.91,11,9.91a8.67,8.67,0,0,1-3,6.78A9,9,0,0,1,193.83,52.67ZM176,41.72h5.65a3.07,3.07,0,0,0,0-6.14H176Zm9.91,10.35a3.13,3.13,0,0,0-3.27-3.31H176v6.63h6.64A3.13,3.13,0,0,0,185.9,52.07Z"/><path class="cls-2" d="M74.77,61a28.92,28.92,0,0,1-4.24-4.4,28.1,28.1,0,0,1-3.06,4.68,31.69,31.69,0,0,0,3.93,3.9,2.75,2.75,0,0,1,1,1.88A2.44,2.44,0,0,1,71.8,69c-.93,1.06-3.06,1.25-5-.28-1.38-1.07-2.67-2-3.87-2.87a28.12,28.12,0,0,1-5,3.1c1.64,1.08,3.49,2.39,5.59,4a10.28,10.28,0,0,0,6.28,2.26,7.8,7.8,0,0,0,8-8.54A8.13,8.13,0,0,0,74.77,61Z"/><path class="cls-2" d="M66.46,25.08c.26.29.52.58.76.88.94-.62,1.81-1.25,2.58-1.82a2.72,2.72,0,0,1,2.07-.45,2.41,2.41,0,0,1,1.64,1c.86,1.29-.58,2.8-1.94,3.83a14.37,14.37,0,0,1-1.78,1.06,27.58,27.58,0,0,1,2.28,4.86,19.43,19.43,0,0,0,2.74-1.64c5.18-3.93,5-8.31,3.16-11.09A8,8,0,0,0,72.8,18.4a8.13,8.13,0,0,0-6.16,1.4c-1.19.87-2.29,1.64-3.34,2.29A27.84,27.84,0,0,1,66.46,25.08Z"/><path class="cls-2" d="M58.49,62.94a21.71,21.71,0,0,0,2.59-2,23.23,23.23,0,0,0,3.29-3.64,22.89,22.89,0,0,0,4.41-13.52,22.75,22.75,0,0,0-1.11-7,22.43,22.43,0,0,0-2.24-4.9,23.35,23.35,0,0,0-2.6-3.48h0a23,23,0,0,0-5.26-4.3c-.26-.16-.52-.33-.79-.48h0C51.76,21,45.21,13.09,43.3,7.22,41.85,2.77,38.62,0,35.19,0a6.49,6.49,0,0,0-2,.31C31.49.85,28.3,1.87,27,4.91c-.9,2.13-.62,4.71.85,7.68,2.54,5.15,3.14,9.85,1.56,11.79a2,2,0,0,1-1.28.3c-1.77,0-5.48-.85-13-3.76-1.49-.58-2.67-1-3.54-1.3a11.16,11.16,0,0,0-3.27-.5A8.09,8.09,0,0,0,.46,24.26c-1.59,4.28,1,9.33,6.1,11.74,1,.45,2.09.9,3.29,1.37,4.47,1.77,10.36,4.1,13.05,9a11.57,11.57,0,0,1,1,2.6v0a43.91,43.91,0,0,1,1,4.6c1.41,8.58-1.08,12.6-2.82,15.38-.34.55-.65,1-.91,1.52C18.68,75.26,21,80,24.59,82.23a11.85,11.85,0,0,0,6.16,2.09,7.3,7.3,0,0,0,6-3.32c.64-.87,1.32-1.93,2-3,2.94-4.56,7-10.79,12.09-11.71h0c.53-.12,1.06-.26,1.58-.42A22.83,22.83,0,0,0,58.49,62.94ZM40.85,66.28A54.7,54.7,0,0,0,34.27,75c-.71,1.1-1.33,2.06-1.87,2.8a2,2,0,0,1-1.74,1.1,6.57,6.57,0,0,1-3.23-1.27c-.49-.31-2.88-2-1.47-4.55.21-.39.46-.8.75-1.25a23.12,23.12,0,0,0,3.93-10.75,32.56,32.56,0,0,0-.53-9.2c-.25-1.35-.56-2.76-1-4.27h0v0h0A18.65,18.65,0,0,0,28.18,45a18,18,0,0,0-4.84-6.37c-3.62-3.09-8.08-4.87-11.52-6.22-1.16-.46-2.17-.86-3-1.23-2.66-1.27-3.89-3.62-3.37-5a2.76,2.76,0,0,1,2.81-1.64,6,6,0,0,1,1.75.28c.67.2,1.82.65,3.16,1.17,5.38,2.09,10.3,3.84,14.16,4,.26,0,.52,0,.77,0a7.51,7.51,0,0,0,4.3-1.08,8.83,8.83,0,0,0,3.06-5.71c.53-3.55-.4-8-2.85-13-1-2-.84-2.91-.72-3.2.33-.77,2-1.3,2.89-1.58a1,1,0,0,1,.33,0c1.07,0,2.37,1.46,3,3.51a37.38,37.38,0,0,0,7.17,11.89,39.59,39.59,0,0,0,5.27,5.13,22.92,22.92,0,0,0,3.72,2.46h0a15.54,15.54,0,0,1,1.4.87A17.81,17.81,0,0,1,61,35a17.37,17.37,0,0,1,2.37,8.81c0,.41,0,.81,0,1.22a17.55,17.55,0,0,1-2,7.05A17.74,17.74,0,0,1,49.82,61h.1a13.36,13.36,0,0,0-2.68.79A19.26,19.26,0,0,0,40.85,66.28Z"/></svg>