<svg id="Layer_1" data-name="Layer 1" xmlns="http://www.w3.org/2000/svg" viewBox="0 0 565.83 54"><defs><style>.cls-1{fill:#bb0e3d;}.cls-2{fill:#606060;}.cls-3{fill:#fff;}</style></defs><title>logo-NIH-NCI</title><path class="cls-1" d="M114.67,16.16h4.68v21h-4.68L104.68,24V37.13H100v-21h4.38l10.29,13.5Z"/><path class="cls-1" d="M139.45,37.13,137.5,32.6h-8.79l-2,4.53h-5l9.06-21h4.53l9.06,21ZM133.12,22.4l-2.64,6.09h5.25Z"/><path class="cls-1" d="M154.21,20.21V37.13h-4.68V20.21h-5.94V16.16h16.56v4.05Z"/><path class="cls-1" d="M163.56,16.16h4.68v21h-4.68Z"/><path class="cls-1" d="M191,34.23a11.41,11.41,0,0,1-15.66,0,10.35,10.35,0,0,1-3.18-7.72,10.37,10.37,0,0,1,3.18-7.73,11.44,11.44,0,0,1,15.66,0,10.38,10.38,0,0,1,3.19,7.73A10.36,10.36,0,0,1,191,34.23Zm-1.59-7.71a6.85,6.85,0,0,0-1.8-4.78,5.93,5.93,0,0,0-8.85,0,6.85,6.85,0,0,0-1.8,4.78,6.81,6.81,0,0,0,1.8,4.77,6,6,0,0,0,8.85,0A6.81,6.81,0,0,0,189.45,26.52Z"/><path class="cls-1" d="M212.85,16.16h4.68v21h-4.68L202.86,24V37.13h-4.68v-21h4.38l10.29,13.5Z"/><path class="cls-1" d="M237.63,37.13l-1.95-4.53h-8.79l-1.95,4.53h-5l9.07-21h4.53l9.06,21ZM231.3,22.4l-2.64,6.09h5.25Z"/><path class="cls-1" d="M245,37.13v-21h4.68V33h8.94v4.17Z"/><path class="cls-1" d="M279.63,33a6.91,6.91,0,0,0,5.64-2.73l3,3.09a11.31,11.31,0,0,1-16.39,1,10.36,10.36,0,0,1-3.14-7.73,10.43,10.43,0,0,1,3.2-7.78,10.75,10.75,0,0,1,7.81-3.12,11.08,11.08,0,0,1,8.64,3.93l-2.91,3.3A6.82,6.82,0,0,0,280,20.15a6.42,6.42,0,0,0-4.51,1.72,6,6,0,0,0-1.88,4.65,6.36,6.36,0,0,0,1.77,4.7A5.84,5.84,0,0,0,279.63,33Z"/><path class="cls-1" d="M306.75,37.13,304.8,32.6H296l-1.95,4.53h-5l9.06-21h4.53l9.06,21ZM300.42,22.4l-2.64,6.09H303Z"/><path class="cls-1" d="M328.83,16.16h4.68v21h-4.68L318.84,24V37.13h-4.68v-21h4.38l10.29,13.5V16.16Z"/><path class="cls-1" d="M348.3,33a6.91,6.91,0,0,0,5.64-2.73l3,3.09a11.31,11.31,0,0,1-16.39,1,10.36,10.36,0,0,1-3.14-7.73,10.43,10.43,0,0,1,3.2-7.78,10.75,10.75,0,0,1,7.81-3.12,11.08,11.08,0,0,1,8.64,3.93l-2.91,3.3a6.82,6.82,0,0,0-5.52-2.76,6.42,6.42,0,0,0-4.51,1.72,6,6,0,0,0-1.88,4.65,6.36,6.36,0,0,0,1.77,4.7A5.84,5.84,0,0,0,348.3,33Z"/><path class="cls-1" d="M375.75,16.16v4.17H365.31v4.32h9.39v4h-9.39V33h10.77v4.14H360.63v-21Z"/><path class="cls-1" d="M397.26,23.12q0,5-4,6.51l5.31,7.5h-5.76l-4.65-6.69h-3.24v6.69h-4.68v-21h7.95q4.89,0,7,1.65t2.08,5.31Zm-5.64,2.49a3.18,3.18,0,0,0,.87-2.48,2.64,2.64,0,0,0-.9-2.32,5.76,5.76,0,0,0-3.15-.63h-3.51v6.21h3.42A5,5,0,0,0,391.62,25.61Z"/><path class="cls-1" d="M410,16.16h4.68v21H410Z"/><path class="cls-1" d="M434.49,16.16h4.68v21h-4.68L424.5,24V37.13h-4.68v-21h4.38l10.29,13.5V16.16Z"/><path class="cls-1" d="M449.24,20.34a1.81,1.81,0,0,0-.68,1.47,1.67,1.67,0,0,0,.83,1.46,15.15,15.15,0,0,0,3.81,1.27,10.7,10.7,0,0,1,4.63,2.21A5.45,5.45,0,0,1,459.48,31a5.65,5.65,0,0,1-2.11,4.57,8.45,8.45,0,0,1-5.57,1.76,12.88,12.88,0,0,1-9-3.69l2.79-3.42q3.39,3,6.27,3a3.31,3.31,0,0,0,2-.56,1.78,1.78,0,0,0,.73-1.5,1.75,1.75,0,0,0-.78-1.5,10.2,10.2,0,0,0-3.09-1.12,13.41,13.41,0,0,1-5.35-2.27,5.35,5.35,0,0,1-1.7-4.38,5.42,5.42,0,0,1,2.15-4.6,8.62,8.62,0,0,1,5.35-1.62,12.88,12.88,0,0,1,4.2.72,11.25,11.25,0,0,1,3.66,2l-2.37,3.42a9.23,9.23,0,0,0-5.64-2.07,2.8,2.8,0,0,0-1.84.55Z"/><path class="cls-1" d="M472.17,20.21V37.13h-4.68V20.21h-5.94V16.16h16.56v4.05Z"/><path class="cls-1" d="M481.53,16.16h4.68v21h-4.68Z"/><path class="cls-1" d="M500.25,20.21V37.13h-4.68V20.21h-5.94V16.16h16.56v4.05Z"/><path class="cls-1" d="M515.16,31.71a4.12,4.12,0,0,0,6.29,0,6.21,6.21,0,0,0,1.15-4V16.16h4.68V27.89q0,4.56-2.52,7a9.73,9.73,0,0,1-12.92,0q-2.54-2.46-2.53-7V16.16H514V27.74A6.16,6.16,0,0,0,515.16,31.71Z"/><path class="cls-1" d="M541,20.21V37.13h-4.68V20.21H530.4V16.16H547v4.05Z"/><path class="cls-1" d="M565.5,16.16v4.17H555.06v4.32h9.39v4h-9.39V33h10.77v4.14H550.38v-21Z"/><path class="cls-2" d="M75,27,60,0H5.77A5.78,5.78,0,0,0,0,5.79V48.21A5.78,5.78,0,0,0,5.77,54H60Z"/><path class="cls-1" d="M73.5,2.82a5.84,5.84,0,0,0-5-2.82H64L79.2,27,64,54h4.49a5.84,5.84,0,0,0,5-2.82L87,27Z"/><rect class="cls-3" x="32" y="15" width="4" height="24"/><polygon class="cls-3" points="9 15 9 39 13 39 13 21.4 24 39 28 39 28 15 24 15 24 32.6 13 15 9 15"/><polygon class="cls-3" points="44 15 40 15 40 39 44 39 44 29 55 29 55 39 59 39 59 15 55 15 55 25 44 25 44 15"/></svg>