<svg id="Layer_1" data-name="Layer 1" xmlns="http://www.w3.org/2000/svg" viewBox="0 0 296.89 109.14"><defs><style>.cls-1{fill:#fff;opacity:0.5;}.cls-2{fill:#7fd0df;}.cls-3{fill:#00b8be;}.cls-4{fill:none;}</style></defs><title>logo-hub</title><path class="cls-1" d="M247.19,36.61l-7.43-3a22,22,0,0,0-.12-3.71l3.28-1.38A6.39,6.39,0,1,0,238,16.78l-3.63,1.52A21.17,21.17,0,0,0,231.91,16l2.93-7.18A6.39,6.39,0,1,0,223,4l-3,7.36a21.23,21.23,0,0,0-3.19,0l-1.67-4a6.15,6.15,0,0,0-1.36-2,6.13,6.13,0,0,1,.26,1.78v7.73l1.68,4a14.3,14.3,0,0,1,5.52-.2l5.39-13.21a2.47,2.47,0,0,1,3.22-1.35,2.47,2.47,0,0,1,1.35,3.21l-4.05,9.92a6.37,6.37,0,0,1,5.18,6.16l7.15-3a2.47,2.47,0,0,1,1.91,4.55l-8.71,3.66a14.19,14.19,0,0,1,.43,6.58l12.59,5.06a2.47,2.47,0,1,1-1.86,4.57l-8.77-3.53c0,.22,0,.44,0,.67a6.39,6.39,0,0,1-6.39,6.39h-.61L234.29,63a2.47,2.47,0,0,1-4.55,1.92l-1.42-3.38a6.23,6.23,0,0,1-.54.63A6.48,6.48,0,0,1,225,63.8l1.12,2.65a6.39,6.39,0,0,0,11.78-5l-5.44-12.94a20.94,20.94,0,0,0,2.8-2.93l7.1,2.82a6.39,6.39,0,1,0,4.82-11.83Z" transform="translate(-1.85)"/><path class="cls-1" d="M196.38,21.66a2.52,2.52,0,0,1,.72-.48,2.48,2.48,0,0,1,1.89,0l1.1.46c.39-.15.78-.32,1.18-.45V17.89l-.8-.35a6.33,6.33,0,0,0-6.87,1.38Z" transform="translate(-1.85)"/><path class="cls-2" d="M247.19,36.61l-7.43-3a22,22,0,0,0-.12-3.71l3.28-1.38A6.39,6.39,0,1,0,238,16.78l-3.63,1.52A21.17,21.17,0,0,0,231.91,16l2.93-7.18A6.39,6.39,0,1,0,223,4l-3,7.36a21.23,21.23,0,0,0-3.19,0l-1.67-4a6.15,6.15,0,0,0-1.36-2,6.13,6.13,0,0,1,.26,1.78v7.73l1.68,4a14.3,14.3,0,0,1,5.52-.2l5.39-13.21a2.47,2.47,0,0,1,3.22-1.35,2.47,2.47,0,0,1,1.35,3.21l-4.05,9.92a6.37,6.37,0,0,1,5.18,6.16l7.15-3a2.47,2.47,0,0,1,1.91,4.55l-8.71,3.66a14.19,14.19,0,0,1,.43,6.58l12.59,5.06a2.47,2.47,0,1,1-1.86,4.57l-8.77-3.53c0,.22,0,.44,0,.67a6.39,6.39,0,0,1-6.39,6.39h-.61L234.29,63a2.47,2.47,0,0,1-4.55,1.92l-1.42-3.38a6.23,6.23,0,0,1-.54.63A6.48,6.48,0,0,1,225,63.8l1.12,2.65a6.39,6.39,0,0,0,11.78-5l-5.44-12.94a20.94,20.94,0,0,0,2.8-2.93l7.1,2.82a6.39,6.39,0,1,0,4.82-11.83Z" transform="translate(-1.85)"/><path class="cls-2" d="M196.38,21.66a2.52,2.52,0,0,1,.72-.48,2.48,2.48,0,0,1,1.89,0l1.1.46c.39-.15.78-.32,1.18-.45V17.89l-.8-.35a6.33,6.33,0,0,0-6.87,1.38Z" transform="translate(-1.85)"/><path class="cls-3" d="M228.73,48.34a6.39,6.39,0,1,0,0-12.78h-.47a21.42,21.42,0,0,0-1.45-3.72L230.48,28a6.39,6.39,0,0,0-9-9l-3.53,3.66a21.52,21.52,0,0,0-3.86-1.61V7.15a6.39,6.39,0,0,0-12.78,0v14a21.68,21.68,0,0,0-3.72,1.62l-5.45-5.35a6.39,6.39,0,1,0-9,9l5.71,5.61a21,21,0,0,0-1.33,3.46h-3.56a6.39,6.39,0,1,0,0,12.78h3.94a21.67,21.67,0,0,0,1.33,3.08L181.23,59a6.39,6.39,0,0,0,9,9l8.07-7.7a21.14,21.14,0,0,0,2.94,1.22v4.3a6.39,6.39,0,0,0,12.78,0V61.67a21.48,21.48,0,0,0,3.06-1.23l1.63,1.74a6.39,6.39,0,0,0,9-9l-1.37-1.47a21.62,21.62,0,0,0,1.48-3.33ZM225,55.91a2.46,2.46,0,1,1-3.48,3.49L215.25,53a14.3,14.3,0,0,1-5.13,2V65.84a2.47,2.47,0,1,1-4.93,0V55a14.15,14.15,0,0,1-5.17-2L187.49,65.24A2.46,2.46,0,1,1,184,61.76l12.34-12a14.3,14.3,0,0,1-2.63-5.36h-9.83a2.47,2.47,0,1,1,0-4.93h9.45a14.22,14.22,0,0,1,2.15-6.23l-9.64-9.55a2.46,2.46,0,1,1,3.48-3.49l9.47,9.38a14.22,14.22,0,0,1,6.4-2.82V7.15a2.47,2.47,0,1,1,4.93,0V26.8a14.25,14.25,0,0,1,6.35,2.85l7.75-7.88a2.46,2.46,0,0,1,3.48,3.49l-7.94,8.07a14.18,14.18,0,0,1,2.11,6.16h6.86a2.47,2.47,0,0,1,0,4.93h-7.24a14.27,14.27,0,0,1-2.58,5.29Z" transform="translate(-1.85)"/><path class="cls-4" d="M146.82,67.78c-7.56,0-12,9.06-13.38,15.5s-.77,15.5,6.79,15.5c9,0,11.85-8.31,13.38-15.5S155.79,67.78,146.82,67.78Z" transform="translate(-1.85)"/><path class="cls-3" d="M40.59,58.44a20.1,20.1,0,0,0-15.89,7.1l-.14-.19,5.54-26H16.18L1.85,106.71h14l6-28.19c1.64-6.82,6.3-10.74,10.69-10.74,6.91,0,7.1,5.69,6.12,10.74l-6,28.19h14l6.49-30.53a31.81,31.81,0,0,0,.65-7.47C53.58,61.9,45.26,58.44,40.59,58.44Z" transform="translate(-1.85)"/><path class="cls-3" d="M99,61.2,93.33,88C91.69,94.76,87,98.78,82.62,98.78c-6.91,0-7.08-5.79-6.1-10.83l5.41-25.44L67.69,63.6,62,90.28a31.33,31.33,0,0,0-.65,7.47c.23,6.82,8.53,10.36,13.2,10.36a20.57,20.57,0,0,0,16-7.18l-.67,5.78h14q.48-4.2,1.23-8.4l8.12-38.2Z" transform="translate(-1.85)"/><path class="cls-3" d="M151.42,58.44c-4.85,0-10.51,2.9-14,6.82h-.18l5.52-26h-14L116.44,97.38c-.65,3.08-1.61,6.25-2.45,9.33h14c.67-2.24,1.31-4.38,1.79-6.62H130c1.9,5.5,6.6,8,12.67,8,13.72,0,22.88-12.79,25.44-24.83C170.76,70.67,166,58.44,151.42,58.44Zm2.19,24.84c-1.53,7.19-4.41,15.5-13.38,15.5-7.56,0-8.16-9.06-6.79-15.5s5.82-15.5,13.38-15.5C155.79,67.78,155.14,76.09,153.61,83.28Z" transform="translate(-1.85)"/><path class="cls-3" d="M180,92.34l1.84-8.66H183l-.79,3.72h4.11l.79-3.72h1.2l-1.84,8.66h-1.2l.83-3.91H182l-.83,3.91Z" transform="translate(-1.85)"/><path class="cls-3" d="M193.94,86.32h1.14l-1.28,6h-1.11l.18-.89h0a2.87,2.87,0,0,1-2.29,1.07c-1.26,0-1.77-1-1.52-2.17l.86-4H191l-.76,3.56c-.22,1-.14,1.81.95,1.81a1.85,1.85,0,0,0,1.53-.86,5.36,5.36,0,0,0,.52-1.42Z" transform="translate(-1.85)"/><path class="cls-3" d="M197,92.34h-1.18c.1-.36.22-.72.27-1l1.63-7.7h1.14l-.73,3.45h0a2.47,2.47,0,0,1,2.09-1c1.87,0,2.38,1.56,2,3.19s-1.4,3.19-3.19,3.19a1.67,1.67,0,0,1-1.83-1.14h0v.06ZM199.89,87c-1.3,0-2,1.28-2.21,2.37s-.17,2.36,1.2,2.36,2-1.24,2.21-2.36S201.26,87,199.89,87Z" transform="translate(-1.85)"/><path class="cls-3" d="M204.46,92.34h-1.14l1.28-6h1.14l-.25,1.16h0a2.14,2.14,0,0,1,2-1.25h.4l-.23,1.08a1.32,1.32,0,0,0-.48-.06c-1.45,0-1.87.82-2.14,2.09Z" transform="translate(-1.85)"/><path class="cls-3" d="M209.28,89.54c-.31,1.06-.11,2.15,1.05,2.15a1.63,1.63,0,0,0,1.73-1.22h1.2a3.1,3.1,0,0,1-3.12,2c-1.93,0-2.4-1.37-2-3.14a3.67,3.67,0,0,1,3.49-3.24c1.79,0,2.4,1.17,2,2.84l-.12.56Zm3.21-.79c.24-1-.05-1.79-1.15-1.79a2.07,2.07,0,0,0-1.89,1.79Z" transform="translate(-1.85)"/><path class="cls-3" d="M218.83,88.25c.1-.76-.15-1.29-1-1.29-1.09,0-1.71,1-2,2.37s-.08,2.36,1,2.36a1.62,1.62,0,0,0,1.57-1.36h1.14a3,3,0,0,1-2.9,2.19c-1.93,0-2.4-1.37-2-3.14s1.58-3.24,3.48-3.24A1.7,1.7,0,0,1,220,88.25Z" transform="translate(-1.85)"/><path class="cls-3" d="M220.62,92.34l1.84-8.66h1.14l-.73,3.44h0a2.68,2.68,0,0,1,2.16-1c1.57,0,1.84,1,1.61,2.12l-.86,4.08h-1.14l.75-3.57c.23-1,.1-1.73-1-1.76a2.1,2.1,0,0,0-1.54.84,3.29,3.29,0,0,0-.49,1.39l-.66,3.1Z" transform="translate(-1.85)"/><path class="cls-3" d="M229.3,86.32l.27-1.29,1.21-.36-.34,1.65,1.39,0-.18.85h-1.39L229.44,91c-.09.43.2.63.61.63a2.6,2.6,0,0,0,.61-.07l-.18.88c-.27,0-.54.07-.8.07a3.68,3.68,0,0,1-.75-.06.81.81,0,0,1-.59-.4c-.14-.29-.2-.31,0-1.11l.81-3.83h-1l.18-.85Z" transform="translate(-1.85)"/><path class="cls-3" d="M182.08,97.9c2.7,0,3.54,2,3,4.51s-2.21,4.51-4.91,4.51-3.54-2-3-4.51S179.39,97.9,182.08,97.9Zm-1.69,8c2.19,0,3.05-1.68,3.43-3.48s.24-3.48-2-3.48-3,1.63-3.43,3.48S178.19,105.89,180.39,105.89Z" transform="translate(-1.85)"/><path class="cls-3" d="M187.13,106.74H186l1.28-6h1.14l-.25,1.16h0a2.15,2.15,0,0,1,2-1.25h.39l-.23,1.08a1.27,1.27,0,0,0-.48-.06c-1.45,0-1.86.82-2.13,2.09Z" transform="translate(-1.85)"/><path class="cls-3" d="M196.05,100.72h1.18a10.87,10.87,0,0,0-.3,1.08L196,106c-.47,2.21-1.62,3.11-3.83,3.11-1.29,0-2.1-.56-1.82-2h1.2c-.12.81.37,1.12,1.17,1.12,1.62,0,1.9-1.34,2.23-2.7h0a2.73,2.73,0,0,1-2.19,1c-1.84,0-2.3-1.3-1.94-3a3.59,3.59,0,0,1,3.46-3.1,1.52,1.52,0,0,1,1.44.79s.1.37.12.29Zm-2.8,5.08c1.23,0,1.91-1,2.16-2.22s0-2.22-1.22-2.22-2,1.28-2.16,2.22S191.91,105.8,193.25,105.8Z" transform="translate(-1.85)"/><path class="cls-3" d="M202.26,103c.22-1,.29-1.66-.92-1.66a1.33,1.33,0,0,0-1.33,1h-1.2a2.48,2.48,0,0,1,2.66-1.78c1.23,0,2.38.37,2,2l-.61,2.88c-.06.26-.15.76-.22,1.27h-.77c-.11,0-.33.06-.31-.09s.07-.54.12-.81h0a2.46,2.46,0,0,1-2.1,1.08c-1,0-2-.54-1.73-1.72.36-1.69,2-2.18,3.39-2.18Zm-1.31.79c-.7,0-1.68.29-1.86,1.16s.27,1.12.95,1.12c1.34,0,1.84-1.16,2.05-2.28Z" transform="translate(-1.85)"/><path class="cls-3" d="M206.83,101.6h0a2.67,2.67,0,0,1,2-1.06c.42,0,2.25.1,1.84,2l-.88,4.16h-1.14l.8-3.79c.22-1-.09-1.54-1.05-1.54a1.92,1.92,0,0,0-1.2.45c-.2.16-.57.43-.82,1.6l-.69,3.28h-1.14l1.28-6H207Z" transform="translate(-1.85)"/><path class="cls-3" d="M218.19,103.73a3.69,3.69,0,0,1-3.68,3.19c-2,0-2.72-1.32-2.32-3.19a3.69,3.69,0,0,1,3.68-3.19C217.85,100.54,218.59,101.86,218.19,103.73Zm-3.5,2.36c1.35,0,2-1.08,2.3-2.36s.06-2.37-1.3-2.37-2,1.08-2.3,2.37S213.33,106.09,214.69,106.09Z" transform="translate(-1.85)"/><path class="cls-3" d="M219.32,106.74l1.28-6h1.13l-1.27,6Zm1.73-8.66h1.35l-.26,1.23h-1.35Z" transform="translate(-1.85)"/><path class="cls-3" d="M228.63,98.08h1.14l-1.61,7.59c-.08.36-.12.72-.17,1.07h-1.16l.15-.9v-.06h0a2.69,2.69,0,0,1-2.32,1.14c-1.78,0-2.14-1.65-1.81-3.19a3.63,3.63,0,0,1,3.37-3.19,1.53,1.53,0,0,1,1.66,1h0Zm-3.4,8c1.38,0,2-1.29,2.21-2.41s.1-2.39-1.19-2.39-2,1.26-2.21,2.39S223.94,106.13,225.23,106.13Z" transform="translate(-1.85)"/><path class="cls-3" d="M236.91,99.11H234l.21-1h7l-.22,1h-2.9l-1.62,7.63h-1.2Z" transform="translate(-1.85)"/><path class="cls-3" d="M240.71,103.94c-.31,1.06-.11,2.15,1,2.15a1.63,1.63,0,0,0,1.73-1.22h1.2a3.09,3.09,0,0,1-3.11,2c-1.94,0-2.41-1.37-2-3.14a3.67,3.67,0,0,1,3.49-3.24c1.79,0,2.4,1.17,2,2.84l-.12.56Zm3.21-.79c.24-1,0-1.79-1.15-1.79a2.08,2.08,0,0,0-1.89,1.79Z" transform="translate(-1.85)"/><path class="cls-3" d="M250.26,102.65c.1-.76-.15-1.29-1-1.29-1.1,0-1.72,1-2,2.37s-.08,2.36,1,2.36a1.62,1.62,0,0,0,1.57-1.36H251a3,3,0,0,1-2.9,2.19c-1.93,0-2.4-1.37-2-3.14a3.67,3.67,0,0,1,3.49-3.24,1.69,1.69,0,0,1,1.84,2.11Z" transform="translate(-1.85)"/><path class="cls-3" d="M252.06,106.74l1.83-8.66H255l-.73,3.44h0a2.68,2.68,0,0,1,2.16-1c1.57,0,1.84,1,1.61,2.12l-.86,4.08H256.1l.75-3.56c.23-1.06.1-1.74-1-1.77a2.1,2.1,0,0,0-1.54.84,3.33,3.33,0,0,0-.49,1.39l-.66,3.1Z" transform="translate(-1.85)"/><path class="cls-3" d="M261.59,101.6h0a2.67,2.67,0,0,1,2.05-1.06c.42,0,2.25.1,1.84,2l-.88,4.16h-1.14l.8-3.79c.22-1-.09-1.54-1.05-1.54a1.91,1.91,0,0,0-1.2.45c-.2.16-.57.43-.82,1.6l-.69,3.28h-1.14l1.28-6h1.11Z" transform="translate(-1.85)"/><path class="cls-3" d="M273,103.73a3.69,3.69,0,0,1-3.68,3.19c-2,0-2.72-1.32-2.32-3.19a3.69,3.69,0,0,1,3.68-3.19C272.61,100.54,273.35,101.86,273,103.73Zm-3.5,2.36c1.35,0,2-1.08,2.3-2.36s.06-2.37-1.3-2.37-2,1.08-2.3,2.37S268.09,106.09,269.45,106.09Z" transform="translate(-1.85)"/><path class="cls-3" d="M274.07,106.74l1.84-8.66h1.14l-1.84,8.66Z" transform="translate(-1.85)"/><path class="cls-3" d="M283.62,103.73a3.69,3.69,0,0,1-3.68,3.19c-2,0-2.72-1.32-2.32-3.19a3.69,3.69,0,0,1,3.67-3.19C283.27,100.54,284,101.86,283.62,103.73Zm-3.51,2.36c1.36,0,2-1.08,2.31-2.36s.05-2.37-1.3-2.37-2,1.08-2.3,2.37S278.76,106.09,280.11,106.09Z" transform="translate(-1.85)"/><path class="cls-3" d="M290.15,100.72h1.17c-.11.36-.22.72-.3,1.08l-.9,4.23c-.47,2.21-1.62,3.11-3.82,3.11-1.3,0-2.11-.56-1.82-2h1.2c-.13.81.36,1.12,1.16,1.12,1.62,0,1.91-1.34,2.23-2.7h0a2.77,2.77,0,0,1-2.2,1c-1.83,0-2.29-1.3-1.93-3a3.59,3.59,0,0,1,3.45-3.1,1.51,1.51,0,0,1,1.44.79s.1.37.12.29Zm-2.81,5.08c1.24,0,1.92-1,2.16-2.22s0-2.22-1.22-2.22-2,1.28-2.16,2.22S286,105.8,287.34,105.8Z" transform="translate(-1.85)"/><path class="cls-3" d="M293.43,109h-1.16l1.41-2.33-1.24-6h1.27l.88,4.75,2.93-4.75h1.22Z" transform="translate(-1.85)"/></svg>