<svg id="Isolation_Mode" data-name="Isolation Mode" xmlns="http://www.w3.org/2000/svg" viewBox="0 0 1053.51 145.32"><defs><style>.cls-1{fill:#bf063b;}.cls-2{fill:#65666a;}.cls-3{fill:#fff;}</style></defs><title>logo-NIH-HCMI-Catalog</title><path class="cls-1" d="M295.66,20.46v35.1H289l-17.5-21.31V55.56h-8V20.46h6.72l17.45,21.31V20.46Z"/><path class="cls-1" d="M327.1,48H310.8l-3.11,7.52h-8.32L315,20.46h8l15.69,35.1h-8.52Zm-2.56-6.17L319,28.44l-5.56,13.43Z"/><path class="cls-1" d="M347.91,27.08H336.67V20.46h30.59v6.62H356V55.56h-8.12Z"/><path class="cls-1" d="M371.62,20.46h8.12v35.1h-8.12Z"/><path class="cls-1" d="M395.21,53.81A17.49,17.49,0,0,1,385.86,38a17.78,17.78,0,0,1,2.48-9.3,17.53,17.53,0,0,1,6.87-6.49,21.69,21.69,0,0,1,19.68,0A17.56,17.56,0,0,1,424.27,38a17.59,17.59,0,0,1-9.38,15.8,21.78,21.78,0,0,1-19.68,0Zm15.47-6a10.42,10.42,0,0,0,3.94-4A11.75,11.75,0,0,0,416,38a11.71,11.71,0,0,0-1.42-5.81,10.28,10.28,0,0,0-3.94-4,11.74,11.74,0,0,0-11.23,0,10.21,10.21,0,0,0-3.94,4A11.72,11.72,0,0,0,394.08,38a11.76,11.76,0,0,0,1.43,5.82,10.35,10.35,0,0,0,3.94,4,11.81,11.81,0,0,0,11.23,0Z"/><path class="cls-1" d="M462.57,20.46v35.1h-6.66l-17.5-21.31V55.56h-8V20.46h6.72l17.45,21.31V20.46Z"/><path class="cls-1" d="M494,48H477.72l-3.11,7.52h-8.33l15.65-35.1h8l15.69,35.1h-8.52Zm-2.56-6.17-5.56-13.43-5.57,13.43Z"/><path class="cls-1" d="M509.3,20.46h8.13V48.94H535v6.62H509.3Z"/><path class="cls-1" d="M560.87,53.83a17.41,17.41,0,0,1-6.82-6.47A17.83,17.83,0,0,1,551.57,38a17.88,17.88,0,0,1,2.48-9.35,17.48,17.48,0,0,1,6.82-6.47,21.73,21.73,0,0,1,18-.72,16.43,16.43,0,0,1,6.19,4.61l-5.21,4.81A11.22,11.22,0,0,0,571,26.78a11.72,11.72,0,0,0-5.81,1.43,10.14,10.14,0,0,0-4,4A11.72,11.72,0,0,0,559.79,38a11.76,11.76,0,0,0,1.43,5.82,10.27,10.27,0,0,0,4,4A11.71,11.71,0,0,0,571,49.24a11.14,11.14,0,0,0,8.83-4.16l5.21,4.82a16.33,16.33,0,0,1-6.21,4.66,20.69,20.69,0,0,1-8.28,1.6A20.1,20.1,0,0,1,560.87,53.83Z"/><path class="cls-1" d="M612.94,48H596.65l-3.11,7.52h-8.33l15.65-35.1h8l15.69,35.1h-8.52Zm-2.56-6.17-5.56-13.43-5.57,13.43Z"/><path class="cls-1" d="M660.42,20.46v35.1h-6.67L636.26,34.25V55.56h-8V20.46H635L652.4,41.77V20.46Z"/><path class="cls-1" d="M675.84,53.83A17.41,17.41,0,0,1,669,47.36,17.83,17.83,0,0,1,666.54,38,17.88,17.88,0,0,1,669,28.66a17.48,17.48,0,0,1,6.82-6.47,21.73,21.73,0,0,1,18-.72A16.43,16.43,0,0,1,700,26.08l-5.21,4.81A11.23,11.23,0,0,0,686,26.78a11.72,11.72,0,0,0-5.81,1.43,10.08,10.08,0,0,0-4,4A11.72,11.72,0,0,0,674.76,38a11.76,11.76,0,0,0,1.43,5.82,10.21,10.21,0,0,0,4,4A11.71,11.71,0,0,0,686,49.24a11.16,11.16,0,0,0,8.83-4.16L700,49.9a16.33,16.33,0,0,1-6.21,4.66,20.69,20.69,0,0,1-8.28,1.6A20.07,20.07,0,0,1,675.84,53.83Z"/><path class="cls-1" d="M732.67,49v6.52H705.5V20.46H732V27H713.57V34.6h16.29v6.32H713.57V49Z"/><path class="cls-1" d="M761.5,55.56l-6.77-9.78h-7.47v9.78h-8.12V20.46h15.19a19.44,19.44,0,0,1,8.1,1.56,11.62,11.62,0,0,1,7.15,11.18,11.47,11.47,0,0,1-7.23,11.08l7.88,11.28Zm-2-26.9a8.56,8.56,0,0,0-5.57-1.58h-6.62V39.32h6.62a8.45,8.45,0,0,0,5.57-1.61,5.57,5.57,0,0,0,1.9-4.51A5.56,5.56,0,0,0,759.45,28.66Z"/><path class="cls-1" d="M790.18,20.46h8.12v35.1h-8.12Z"/><path class="cls-1" d="M838.82,20.46v35.1h-6.67l-17.5-21.31V55.56h-8V20.46h6.71l17.45,21.31V20.46Z"/><path class="cls-1" d="M850.62,55a18.68,18.68,0,0,1-6.24-2.93L847.14,46a18.46,18.46,0,0,0,5.37,2.66,20.07,20.07,0,0,0,6.21,1,10,10,0,0,0,5.12-1,3.12,3.12,0,0,0,1.65-2.74,2.61,2.61,0,0,0-1-2.08,7.58,7.58,0,0,0-2.5-1.33c-1-.33-2.4-.7-4.14-1.1a57.31,57.31,0,0,1-6.57-1.9,10.8,10.8,0,0,1-4.39-3.06,8.28,8.28,0,0,1-1.83-5.62,9.81,9.81,0,0,1,1.66-5.54,11.16,11.16,0,0,1,5-3.93,20.34,20.34,0,0,1,8.15-1.46,27.21,27.21,0,0,1,6.56.8A19.72,19.72,0,0,1,872.06,23l-2.51,6.17a19.53,19.53,0,0,0-9.72-2.76,9.14,9.14,0,0,0-5,1.1,3.37,3.37,0,0,0-1.63,2.91A2.83,2.83,0,0,0,855,33.07a28.4,28.4,0,0,0,5.74,1.73,57.68,57.68,0,0,1,6.57,1.91,10.84,10.84,0,0,1,4.38,3,8.05,8.05,0,0,1,1.83,5.56,9.56,9.56,0,0,1-1.68,5.49,11.26,11.26,0,0,1-5,3.94,20.52,20.52,0,0,1-8.17,1.45A28.47,28.47,0,0,1,850.62,55Z"/><path class="cls-1" d="M885.9,27.08H874.67V20.46h30.58v6.62H894V55.56H885.9Z"/><path class="cls-1" d="M909.61,20.46h8.13v35.1h-8.13Z"/><path class="cls-1" d="M933.33,27.08H922.1V20.46h30.58v6.62H941.45V55.56h-8.12Z"/><path class="cls-1" d="M960.33,52q-4.19-4.16-4.19-11.88V20.46h8.12V39.82q0,9.42,7.83,9.42A7.31,7.31,0,0,0,977.9,47q2-2.28,2-7.14V20.46h8V40.12q0,7.73-4.18,11.88T972,56.16Q964.51,56.16,960.33,52Z"/><path class="cls-1" d="M1002.62,27.08H991.39V20.46H1022v6.62h-11.23V55.56h-8.13Z"/><path class="cls-1" d="M1053.51,49v6.52h-27.17V20.46h26.52V27h-18.45V34.6h16.3v6.32h-16.3V49Z"/><path class="cls-2" d="M313.45,78v52.28h-12.1V108.81H277.6v21.43H265.51V78H277.6V98.57h23.75V78Z"/><path class="cls-2" d="M336.41,127.66A25.85,25.85,0,0,1,326.26,118a28.07,28.07,0,0,1,0-27.86,25.92,25.92,0,0,1,10.15-9.63,32.42,32.42,0,0,1,26.81-1.08,24.53,24.53,0,0,1,9.22,6.87l-7.76,7.17a16.7,16.7,0,0,0-13.15-6.13,17.45,17.45,0,0,0-8.66,2.13,15.15,15.15,0,0,0-5.94,5.94,18.75,18.75,0,0,0,0,17.32,15.15,15.15,0,0,0,5.94,5.94,17.45,17.45,0,0,0,8.66,2.13,16.64,16.64,0,0,0,13.15-6.2l7.76,7.17a24.1,24.1,0,0,1-9.26,6.94,30.6,30.6,0,0,1-12.32,2.39A30,30,0,0,1,336.41,127.66Z"/><path class="cls-2" d="M428.15,130.24l-.07-31.37-15.39,25.84h-5.45L391.93,99.55v30.69H380.58V78h10l19.56,32.49L429.42,78h9.93l.15,52.28Z"/><path class="cls-2" d="M451.9,78H464v52.28H451.9Z"/><path class="cls-2" d="M508.09,127.66A26,26,0,0,1,497.93,118a28.14,28.14,0,0,1,0-27.86,26,26,0,0,1,10.16-9.63,32.42,32.42,0,0,1,26.81-1.08,24.53,24.53,0,0,1,9.22,6.87l-7.77,7.17a16.66,16.66,0,0,0-13.14-6.13,17.42,17.42,0,0,0-8.66,2.13,15.15,15.15,0,0,0-5.94,5.94,18.67,18.67,0,0,0,0,17.32,15.15,15.15,0,0,0,5.94,5.94,17.42,17.42,0,0,0,8.66,2.13,16.61,16.61,0,0,0,13.14-6.2l7.77,7.17a24.17,24.17,0,0,1-9.26,6.94,30.6,30.6,0,0,1-12.32,2.39A29.94,29.94,0,0,1,508.09,127.66Z"/><path class="cls-2" d="M581.68,93.91q5,4.44,5,13.4v22.93h-10.9v-5q-3.28,5.61-12.25,5.6a19.06,19.06,0,0,1-8-1.56,12,12,0,0,1-5.19-4.33,11.28,11.28,0,0,1-1.8-6.28,10.48,10.48,0,0,1,4.22-8.81q4.21-3.21,13-3.21H575a7.43,7.43,0,0,0-2.31-5.86q-2.31-2.06-7-2.06a20.36,20.36,0,0,0-6.31,1,16.56,16.56,0,0,0-5.26,2.73L550,94.32a25.31,25.31,0,0,1,7.88-3.59,35.47,35.47,0,0,1,9.44-1.27Q576.67,89.46,581.68,93.91Zm-9.93,27.7a7.54,7.54,0,0,0,3.28-4.07v-4.1h-8c-4.78,0-7.17,1.56-7.17,4.7a4.2,4.2,0,0,0,1.76,3.55,7.91,7.91,0,0,0,4.82,1.3A10.17,10.17,0,0,0,571.75,121.61Z"/><path class="cls-2" d="M623.12,128.3a12,12,0,0,1-4.21,1.9,21.55,21.55,0,0,1-5.27.63q-7.17,0-11.09-3.65t-3.92-10.76V99.92h-6.2V91h6.2V81.17h11.65V91h10v9h-10v16.35a5.43,5.43,0,0,0,1.31,3.92,4.83,4.83,0,0,0,3.69,1.38,7.49,7.49,0,0,0,4.71-1.49Z"/><path class="cls-2" d="M660.24,93.91q5,4.44,5,13.4v22.93h-10.9v-5q-3.29,5.61-12.25,5.6a19.11,19.11,0,0,1-8-1.56,12.07,12.07,0,0,1-5.19-4.33,11.35,11.35,0,0,1-1.79-6.28,10.48,10.48,0,0,1,4.22-8.81q4.22-3.21,13-3.21h9.26a7.43,7.43,0,0,0-2.31-5.86c-1.55-1.37-3.86-2.06-6.95-2.06a20.36,20.36,0,0,0-6.31,1,16.45,16.45,0,0,0-5.26,2.73l-4.18-8.14a25.25,25.25,0,0,1,7.87-3.59,35.54,35.54,0,0,1,9.45-1.27Q655.23,89.46,660.24,93.91Zm-9.93,27.7a7.58,7.58,0,0,0,3.28-4.07v-4.1h-8c-4.78,0-7.17,1.56-7.17,4.7a4.2,4.2,0,0,0,1.76,3.55A7.89,7.89,0,0,0,645,123,10.2,10.2,0,0,0,650.31,121.61Z"/><path class="cls-2" d="M675.77,74.83h11.65v55.41H675.77Z"/><path class="cls-2" d="M706,128.18a19.62,19.62,0,0,1-7.88-7.35,21.5,21.5,0,0,1,0-21.36A19.64,19.64,0,0,1,706,92.11a25.7,25.7,0,0,1,22.73,0,19.82,19.82,0,0,1,7.85,7.36,21.57,21.57,0,0,1,0,21.36,19.8,19.8,0,0,1-7.85,7.35,25.7,25.7,0,0,1-22.73,0Zm18.74-9.93a11.25,11.25,0,0,0,2.87-8.1,11.23,11.23,0,0,0-2.87-8.1,9.7,9.7,0,0,0-7.36-3,9.82,9.82,0,0,0-7.39,3,11.17,11.17,0,0,0-2.91,8.1,11.19,11.19,0,0,0,2.91,8.1,9.82,9.82,0,0,0,7.39,3A9.7,9.7,0,0,0,724.72,118.25Z"/><path class="cls-2" d="M788.6,90.06v33.46q0,11-5.75,16.43t-16.8,5.37a41.88,41.88,0,0,1-11-1.42,24,24,0,0,1-8.66-4.1l4.63-8.37a19,19,0,0,0,6.42,3.32,25.33,25.33,0,0,0,7.77,1.24q6,0,8.92-2.73T777,125v-1.72q-4.56,5-12.7,5a21.31,21.31,0,0,1-10.12-2.43,18.55,18.55,0,0,1-7.28-6.83,20.53,20.53,0,0,1,0-20.32,18.55,18.55,0,0,1,7.28-6.83,21.31,21.31,0,0,1,10.12-2.43q8.75,0,13.29,5.75V90.06Zm-14.44,26a10.12,10.12,0,0,0,0-14.26A10.74,10.74,0,0,0,766.58,99a10.85,10.85,0,0,0-7.62,2.73A10,10,0,0,0,759,116a10.85,10.85,0,0,0,7.62,2.73A10.74,10.74,0,0,0,774.16,116Z"/><path class="cls-1" d="M183.77,0H171.42L210,71l-40.13,72h12.45a13,13,0,0,0,11.33-6.66L230.07,71,195.16,6.77A13,13,0,0,0,183.77,0Z"/><path class="cls-2" d="M160.52.51H10.8A10.8,10.8,0,0,0,0,11.31V132.74a10.79,10.79,0,0,0,10.8,10.8H159l40.13-72Z"/><text></text><polygon class="cls-3" points="65.32 85.44 33.6 37.67 23.73 37.67 23.73 103.32 33.76 103.32 33.76 56.67 64.58 103.17 64.68 103.32 75.34 103.32 75.34 37.67 65.32 37.67 65.32 85.44"/><rect class="cls-3" x="87.02" y="37.67" width="11.26" height="65.65"/><polygon class="cls-3" points="150.78 37.67 150.78 65.84 120.28 65.84 120.28 37.67 109.01 37.67 109.01 103.32 120.28 103.32 120.28 76.73 150.78 76.73 150.78 103.32 162.04 103.32 162.04 37.67 150.78 37.67"/></svg>